<svg width="144" height="147" viewBox="0 0 144 147" fill="none" xmlns="http://www.w3.org/2000/svg">
<g filter="url(#filter0_d_398_1141)">
<path d="M130.73 135.3C126.37 139.79 120.92 142.26 115.37 142.26C115.36 142.26 50.9698 142.08 50.9698 142.08C45.2598 142.06 39.6198 141.63 34.1598 141.22C32.2998 141.07 30.4198 140.93 28.5498 140.8C18.0798 140.1 12.6298 134.57 9.90976 130.05C5.38976 122.57 4.72976 112.18 7.88976 98.27C10.3698 87.38 14.5398 77.4 16.2198 73.62L19.6998 65.76C10.5698 64.29 6.25976 58.5 4.40976 54.85C-2.03024 42.11 -1.34023 22.39 5.97977 9.95C9.75977 3.54 15.7998 0 22.9898 0C27.1998 0 31.1198 1.19 34.2598 2.15C35.7298 2.59 37.3798 3.09 38.2398 3.19L53.9098 4.97C54.7198 5.06 55.5998 5.11 56.6098 5.11C58.2198 5.11 59.9498 4.99 61.7798 4.87C63.9198 4.72 66.1198 4.58 68.5198 4.58C83.1898 4.58 95.0098 11.06 107.55 26.15L115.02 27.91C123.01 29.8 127.59 40.04 127.24 46.26C127.04 49.81 125.71 53.42 123.44 56.73C124.37 58.97 125.3 61.15 126.21 63.29C132.6 78.23 138.64 92.35 139.3 113.94C139.53 121.31 136.16 129.69 130.73 135.3Z" fill="white"/>
</g>
<path d="M129.31 114.24C129.54 121.85 123.28 132.28 115.34 132.26L50.9997 132.08C43.7597 132.06 36.5397 131.32 29.2197 130.83C5.35966 129.22 19.8497 90.1 25.3597 77.67L35.7797 54.17C27.5197 56.41 17.3497 58.27 13.3397 50.34C8.34967 40.48 9.17966 24.23 14.5997 15.03C20.2297 5.46997 30.1997 12.35 37.1097 13.13L52.7797 14.91C67.0997 16.54 79.8097 6.89997 101.92 35.09L112.73 37.64C115.03 38.18 117.4 43.33 117.27 45.69C117.09 48.83 114.88 52.17 111.85 54.74C120.02 75.53 128.55 89.22 129.32 114.24H129.31ZM41.8697 49.32C38.1297 37.83 39.1197 27.28 44.2497 16.67C32.2397 17.69 31.5297 49.28 41.8697 49.32ZM85.9596 53.46L79.8197 48.03C78.5297 46.89 76.5396 44.14 75.9596 42.61C75.3796 41.08 77.5097 37 79.1597 36.76L94.8997 34.47C82.8096 18.01 64.8497 15.31 46.8697 21.73C42.3997 28.42 43.5797 39.78 46.3597 46.86C48.6297 52.64 58.8497 45.55 73.3397 54.74C77.1697 57.17 80.8896 56.87 85.9596 53.47V53.46ZM106.65 54.9L88.3497 56.05C76.9297 66.51 70.1697 54.64 63.7597 54.44L43.1997 53.79C48.3297 71.03 67.6597 111.66 58.5997 126.74C75.7197 126.26 92.2896 126.23 109.43 127.11C141.23 128.75 113.48 68.84 106.65 54.89V54.9Z" fill="#860909"/>
<defs>
<filter id="filter0_d_398_1141" x="0" y="0" width="143.311" height="146.26" filterUnits="userSpaceOnUse" color-interpolation-filters="sRGB">
<feFlood flood-opacity="0" result="BackgroundImageFix"/>
<feColorMatrix in="SourceAlpha" type="matrix" values="0 0 0 0 0 0 0 0 0 0 0 0 0 0 0 0 0 0 127 0" result="hardAlpha"/>
<feOffset dx="4" dy="4"/>
<feColorMatrix type="matrix" values="0 0 0 0 0 0 0 0 0 0 0 0 0 0 0 0 0 0 1 0"/>
<feBlend mode="normal" in2="BackgroundImageFix" result="effect1_dropShadow_398_1141"/>
<feBlend mode="normal" in="SourceGraphic" in2="effect1_dropShadow_398_1141" result="shape"/>
</filter>
</defs>
</svg>
