<svg width="285" height="284" viewBox="0 0 285 284" fill="none" xmlns="http://www.w3.org/2000/svg">
<g filter="url(#filter0_d_323_1281)">
<path d="M125.798 275.881C118.877 275.881 112.849 274.86 107.409 272.74C87.9989 265.155 83.4783 250.367 82.0992 242.45C37.5318 219.566 7.03702 172.905 0.192296 116.87C-1.21241 105.454 5.19814 94.6762 15.5163 90.2833L16.5889 87.3973C22.1056 72.4821 33.9562 67.2208 41.4905 65.101C52.2173 49.8282 65.7535 47.0699 76.2249 46.5336L82.2268 40.8893C90.7061 32.9209 101.893 28.8855 115.454 28.8855C116.042 28.8855 116.629 28.8855 117.242 28.8855C123.193 25.4632 132.515 20.5085 144.8 20.5085C153.356 20.5085 161.758 23.0369 169.446 27.8895L183.416 9.8839C188.346 3.52448 195.854 0 203.593 0C206.53 0 209.467 0.510759 212.328 1.55789C222.186 5.15901 230.819 13.8937 234.931 24.2118C236.259 24.0075 237.612 23.8798 238.966 23.8798C244.891 23.8798 250.817 25.9484 255.541 29.9837C263.689 36.9561 268.899 48.0915 269.103 59.0991C269.231 65.9438 267.469 72.3288 264.072 77.7177C265.604 79.1224 266.983 80.7058 268.26 82.417C282.052 101.214 275.335 135.617 267.264 161.156C257.457 192.213 237.383 218.442 210.361 235.707C210.08 242.782 208.522 255.168 197.131 264.133C194.271 266.38 190.976 267.989 187.477 268.858C169.931 273.174 153.56 274.272 137.7 275.294L134.482 275.498C131.902 275.677 128.965 275.881 125.773 275.881H125.798Z" fill="white"/>
</g>
<path d="M116.68 248.937C99.5173 242.245 114.586 229.756 96.4781 221.047C54.5669 200.947 31.0446 158.653 25.5535 113.754L35.0033 111.226L40.5454 96.234C44.2232 86.299 56.1505 91.4326 59.5217 84.6901C66.5452 70.5665 73.5432 72.1755 86.5175 71.9201L99.7217 59.5077C105.545 54.0422 113.948 54.0678 121.456 54.7318C127.892 55.2937 141.301 37.1604 158.949 51.7692C161.222 53.6591 164.644 55.166 167.454 55.498L179.253 56.9283L203.593 25.5398C208.726 27.4042 214.422 35.9601 210.897 41.1191C205.815 48.5767 199.175 55.3448 193.173 62.6492C198.587 64.1049 202.393 65.5607 207.782 69.1363L238.966 49.394C242.976 52.8163 245.657 61.3977 241.443 65.2798C236.795 69.5705 230.461 72.3543 224.919 76.1598C226.502 84.4091 240.013 76.4407 240.064 94.6761C260.113 91.4581 246.04 143.559 242.899 153.443C234.343 180.567 216.567 202.888 191.972 216.961C179.611 224.035 189.035 237.98 181.322 244.033C165.411 247.966 150.342 248.835 134.303 249.907C128.352 250.29 121.916 250.98 116.655 248.937H116.68ZM47.4413 101.521L41.6948 111.124L144.698 102.593L170.621 67.8338C164.032 67.1953 159.204 65.6629 154.48 62.6492C140.994 49.062 131.442 65.5862 121.507 64.7689C116.118 64.3348 109.274 62.5215 105.187 66.4291L93.8986 77.1813C83.1207 87.4228 72.6493 76.5173 69.0992 87.4228C65.9578 97.0514 57.1721 101.47 47.4668 101.521H47.4413ZM197.617 75.9299C193.99 72.2011 190.823 70.541 187.069 69.5704L159.307 101.597L197.617 75.9299ZM229.771 91.9434C224.663 90.5898 219.76 86.6056 216.184 81.1145L183.672 99.3755L227.549 96.2596C228.469 96.183 230.512 95.57 230.41 95.0081L229.771 91.9689V91.9434ZM43.3804 151.043L74.7436 148.412L239.502 139.32C242.439 128.593 244.023 117.509 243.103 107.191L219.198 108.468L145.566 112.324C125.236 113.397 105.902 114.801 85.5725 116.717L36.1781 121.391C36.4335 131.683 39.0386 142.333 43.4059 151.017L43.3804 151.043ZM132.157 222.273C168.552 226.334 202.776 208.89 222.339 178.14L91.8553 182.993L63.3527 184.091C81.4351 204.651 104.268 219.157 132.157 222.273ZM118.596 240.866C138.926 242.015 156.778 241.122 176.367 237.725L177.67 223.933C152.411 230.599 139.334 233.281 113.437 227.866C113.437 231.723 114.688 238.568 118.596 240.866Z" fill="#860909"/>
<defs>
<filter id="filter0_d_323_1281" x="0" y="0" width="284.204" height="283.881" filterUnits="userSpaceOnUse" color-interpolation-filters="sRGB">
<feFlood flood-opacity="0" result="BackgroundImageFix"/>
<feColorMatrix in="SourceAlpha" type="matrix" values="0 0 0 0 0 0 0 0 0 0 0 0 0 0 0 0 0 0 127 0" result="hardAlpha"/>
<feOffset dx="8" dy="8"/>
<feColorMatrix type="matrix" values="0 0 0 0 0 0 0 0 0 0 0 0 0 0 0 0 0 0 1 0"/>
<feBlend mode="normal" in2="BackgroundImageFix" result="effect1_dropShadow_323_1281"/>
<feBlend mode="normal" in="SourceGraphic" in2="effect1_dropShadow_323_1281" result="shape"/>
</filter>
</defs>
</svg>
