<svg width="38" height="43" viewBox="0 0 38 43" fill="none" xmlns="http://www.w3.org/2000/svg">
<g filter="url(#filter0_d_331_1265)">
<path d="M35.6464 28.5226C35.6021 28.9402 35.5873 29.3468 35.5688 29.7792C35.5023 31.4609 35.3914 34.2773 32.4493 35.9923L28.8678 38.0806C27.6038 38.8198 26.2954 39.5849 24.8132 40.2576C24.0592 40.5976 23.2128 40.7787 22.3664 40.7787C21.35 40.7787 20.3484 40.5237 19.4761 40.0432L13.81 36.92C11.6552 38.3024 9.5263 39.437 7.33084 40.3795C6.76534 40.6198 6.16658 40.7418 5.54933 40.7418C3.11362 40.7418 1.05492 38.7828 0.96621 36.373C0.870112 33.8227 0.666826 31.9488 0.467239 30.1414C0.141985 27.1587 -0.168478 24.3423 0.105031 19.4635C0.219609 17.4048 1.6278 15.712 2.97317 14.9432C4.09308 14.3038 5.09102 13.7752 6.10004 13.2874C5.56042 10.0053 6.20724 6.93382 9.3452 3.5741C11.5 1.26775 14.3755 0 17.447 0C20.6699 0 23.7488 1.45625 25.8962 3.99175C27.4633 5.84718 28.4317 8.05373 28.7754 10.4118L29.1266 10.2418C29.7142 9.9609 30.3499 9.81676 31.0263 9.81676C32.49 9.81676 33.9314 10.5005 34.7852 11.5983C35.2325 12.1785 35.5023 12.8771 35.5503 13.6126L35.8608 18.1329C36.101 21.6405 36.0308 25.0372 35.6464 28.5226Z" fill="white"/>
</g>
<path d="M21.2576 36.8092L14.8967 33.3016C14.0725 32.847 13.4294 32.7398 12.6014 33.2942C10.4688 34.7246 8.25485 35.9665 5.87459 36.9829C5.33126 37.2158 4.68075 36.8092 4.65858 36.24C4.39616 29.321 3.37604 27.1514 3.7937 19.6742C3.82696 19.105 4.34072 18.425 4.80273 18.1589C6.07418 17.4307 7.24583 16.8209 8.55423 16.2221C9.18257 15.9375 9.79981 15.5938 10.3949 15.202C9.10495 11.299 9.30824 9.03326 12.047 6.10228C15.1148 2.82017 20.1192 2.8904 23.0724 6.38318C25.4453 9.1885 25.7964 13.0841 24.366 16.6619L30.7417 13.5757C31.0707 13.4168 31.6694 13.6127 31.8653 13.8677L32.1721 18.388C32.3976 21.6886 32.3347 24.834 31.9725 28.1235C31.7249 30.3818 32.161 31.8897 30.5865 32.8064L27.3266 34.7062C25.9849 35.4897 24.7061 36.2511 23.2831 36.8979C22.6806 37.1714 21.8859 37.1603 21.2539 36.8129L21.2576 36.8092ZM18.2195 14.777C20.341 14.2447 21.557 11.8608 20.6884 9.89444C20.0823 8.5232 18.4523 7.7766 17.0219 7.97249C15.7246 8.1499 14.3866 9.09979 14.0096 10.4821C13.6807 11.6907 14.1279 12.903 14.9004 13.7273C15.6729 14.5515 16.8704 15.1133 18.2195 14.7733V14.777ZM30.361 31.8121C30.6826 31.6606 30.8341 30.8327 30.86 30.4298C31.0744 27.6097 31.4994 24.9153 31.4033 22.0989C31.3146 19.5634 31.0152 17.1905 30.7787 14.6735C28.2654 15.8045 26.0182 16.8578 23.7266 18.1367C23.113 18.4804 23.2831 19.6927 23.1759 20.2989L23.0022 31.376L22.8802 35.7041C25.8555 34.2885 27.2674 33.2906 30.3647 31.8158L30.361 31.8121ZM13.045 31.8232L12.8047 20.3174C12.0175 18.9498 11.2598 17.5527 10.6462 16.0336L4.70663 19.4229C4.01916 25.6545 5.34974 29.8163 5.44584 36.0404C8.26224 34.8836 10.3727 33.1021 13.045 31.8232ZM14.0392 27.8573L13.969 31.7752L21.9266 35.7891C22.0708 33.0984 22.019 30.585 22.0597 27.946L22.1742 20.8348C21.1948 22.3243 19.7496 24.9633 18.1825 25.8393C17.7057 25.5806 17.1809 25.3144 16.8667 24.967L13.9209 21.6923L14.0392 27.8573Z" fill="#860909"/>
<defs>
<filter id="filter0_d_331_1265" x="0" y="0" width="38" height="42.7788" filterUnits="userSpaceOnUse" color-interpolation-filters="sRGB">
<feFlood flood-opacity="0" result="BackgroundImageFix"/>
<feColorMatrix in="SourceAlpha" type="matrix" values="0 0 0 0 0 0 0 0 0 0 0 0 0 0 0 0 0 0 127 0" result="hardAlpha"/>
<feOffset dx="2" dy="2"/>
<feColorMatrix type="matrix" values="0 0 0 0 0 0 0 0 0 0 0 0 0 0 0 0 0 0 1 0"/>
<feBlend mode="normal" in2="BackgroundImageFix" result="effect1_dropShadow_331_1265"/>
<feBlend mode="normal" in="SourceGraphic" in2="effect1_dropShadow_331_1265" result="shape"/>
</filter>
</defs>
</svg>
