<svg width="34" height="39" viewBox="0 0 34 39" fill="none" xmlns="http://www.w3.org/2000/svg">
<g opacity="0.9">
<path d="M33.6661 27.0167C33.6242 27.4123 33.6102 27.7975 33.5928 28.2071C33.5299 29.8 33.4252 32.4677 30.6466 34.0921L27.2641 36.0702C26.0702 36.7704 24.8345 37.4951 23.4347 38.1322C22.7226 38.4543 21.9232 38.6259 21.1239 38.6259C20.1639 38.6259 19.2179 38.3843 18.3941 37.9292L13.0428 34.9709C11.0077 36.2802 8.99706 37.355 6.92357 38.2478C6.38949 38.4753 5.82399 38.5908 5.24104 38.5908C2.94064 38.5908 0.996309 36.7353 0.912532 34.4527C0.821773 32.0371 0.62978 30.2621 0.441281 28.5502C0.134097 25.7249 -0.159118 23.0572 0.0991961 18.4359C0.207409 16.4859 1.53737 14.8825 2.808 14.1543C3.86569 13.5486 4.80818 13.048 5.76115 12.5859C5.2515 9.47704 5.86239 6.56776 8.82602 3.38541C10.8611 1.20082 13.5769 0 16.4777 0C19.5216 0 22.4294 1.37937 24.4575 3.78101C25.9376 5.53848 26.8521 7.62854 27.1768 9.86214L27.5084 9.7011C28.0634 9.43503 28.6638 9.29849 29.3026 9.29849C30.685 9.29849 32.0464 9.94616 32.8527 10.9859C33.2751 11.5356 33.5299 12.1973 33.5753 12.894L33.8685 17.1756C34.0954 20.498 34.0291 23.7154 33.6661 27.0167Z" fill="white"/>
<path d="M20.0766 34.866L14.0691 31.5436C13.2907 31.113 12.6833 31.0114 11.9013 31.5366C9.88719 32.8914 7.79624 34.0677 5.54821 35.0305C5.03507 35.2511 4.4207 34.866 4.39976 34.3268C4.15191 27.7731 3.18847 25.718 3.58293 18.6356C3.61434 18.0965 4.09956 17.4523 4.5359 17.2002C5.73671 16.5105 6.84327 15.9329 8.07899 15.3657C8.67241 15.0962 9.25537 14.7706 9.81738 14.3995C8.59911 10.7025 8.7911 8.55641 11.3777 5.78017C14.275 2.67133 19.0015 2.73785 21.7906 6.04624C24.0316 8.70345 24.3632 12.3934 23.0123 15.7823L29.0338 12.8591C29.3445 12.7085 29.91 12.8941 30.095 13.1356L30.3848 17.4173C30.5977 20.5436 30.5383 23.5229 30.1963 26.6388C29.9624 28.7778 30.3743 30.2062 28.8872 31.0744L25.8084 32.8739C24.5413 33.6161 23.3335 34.3373 21.9896 34.95C21.4206 35.2091 20.67 35.1985 20.0731 34.8695L20.0766 34.866ZM17.2072 13.9969C19.2109 13.4927 20.3594 11.2346 19.5391 9.37213C18.9666 8.07328 17.4272 7.36609 16.0763 7.55164C14.851 7.71969 13.5874 8.61943 13.2313 9.92878C12.9206 11.0736 13.343 12.2219 14.0726 13.0026C14.8021 13.7833 15.9331 14.3155 17.2072 13.9934V13.9969ZM28.6743 30.1327C28.978 29.9892 29.1211 29.2049 29.1456 28.8233C29.348 26.1521 29.7494 23.5999 29.6587 20.9322C29.5749 18.5306 29.2922 16.283 29.0688 13.8988C26.6951 14.9701 24.5727 15.9679 22.4084 17.1792C21.829 17.5048 21.9895 18.6531 21.8883 19.2273L21.7243 29.7196L21.6091 33.8192C24.4191 32.4783 25.7526 31.5331 28.6778 30.1362L28.6743 30.1327ZM12.3202 30.1432L12.0933 19.2448C11.3498 17.9494 10.6342 16.6261 10.0547 15.1872L4.44514 18.3975C3.79586 24.3001 5.05252 28.2422 5.14328 34.1378C7.80322 33.042 9.79643 31.3545 12.3202 30.1432ZM13.2592 26.3867L13.1929 30.0977L20.7085 33.8997C20.8446 31.351 20.7957 28.9704 20.8341 26.4707L20.9423 19.7349C20.0173 21.1458 18.6524 23.6455 17.1723 24.4752C16.722 24.2301 16.2264 23.978 15.9296 23.649L13.1475 20.5471L13.2592 26.3867Z" fill="#860909"/>
</g>
</svg>
