<svg width="274" height="408" viewBox="0 0 274 408" fill="none" xmlns="http://www.w3.org/2000/svg">
<g filter="url(#filter0_d_218_1924)">
<path d="M79.4013 399.264C76.7962 399.264 74.2167 398.907 71.7393 398.217C53.8357 393.186 44.8201 373.954 47.5784 346.754C51.4861 308.342 58.4841 271.846 68.8533 235.911C62.6216 238.21 55.7257 240.355 47.936 242.092C44.8712 242.782 41.7809 243.114 38.7672 243.114C20.3784 243.114 5.38629 230.701 1.50421 212.236C-1.10087 199.875 -0.309094 186.466 3.77731 173.415L26.559 100.678C33.8124 77.5134 41.1679 54.7829 51.2818 31.4906C57.0027 18.3376 68.1637 10.2926 82.7215 8.83678L162.253 0.817275C164.679 0.561876 171.115 0 178.854 0C200.64 0 215.095 4.36731 224.366 13.7404C230.649 20.0998 234.072 28.5025 233.97 37.3648C233.816 49.9815 228.53 59.5078 224.647 66.4802C224.086 67.5018 223.498 68.5234 222.987 69.545C222.4 70.6687 221.736 71.7414 220.995 72.763L219.156 75.2659C221.225 75.0616 223.345 74.9339 225.465 74.9339C245.156 74.9339 255.372 85.0477 259.688 91.1006C272.407 108.851 263.928 132.373 247.301 162.229C227.993 196.861 206.488 232.566 181.536 271.386L119.218 368.259C105.044 390.3 93.4994 399.29 79.4013 399.29V399.264Z" fill="white"/>
</g>
<path d="M97.7391 354.416C94.5977 359.32 84.0241 375.129 78.6351 373.622C72.531 371.911 72.3012 355.974 72.9908 349.334C77.5114 304.843 86.578 261.911 100.651 219.643C103.69 210.55 105.937 202.914 108.108 193.49C81.8787 200.36 68.368 211.342 42.3938 217.14C34.3487 218.927 28.168 214.816 26.5079 206.975C24.7457 198.547 25.4608 189.659 28.168 181.026L50.9497 108.289C58.1265 85.3797 65.2521 63.4665 74.7275 41.6555C76.7962 36.9306 80.142 34.7342 85.3266 34.2234L164.858 26.2039C173.67 25.31 208.634 23.1391 208.455 37.0583C208.378 44.5926 203.807 51.1308 200.384 57.6689L174.512 93.0672C165.701 105.122 157.145 115.976 148.691 129.487L203.143 105.76C213.027 101.444 231.977 96.2596 238.924 105.939C244.594 113.857 230.113 140.546 224.979 149.74C204.445 186.62 182.941 221.89 160.031 257.518L97.7135 354.391L97.7391 354.416Z" fill="#860909"/>
<defs>
<filter id="filter0_d_218_1924" x="0" y="0" width="273.825" height="407.29" filterUnits="userSpaceOnUse" color-interpolation-filters="sRGB">
<feFlood flood-opacity="0" result="BackgroundImageFix"/>
<feColorMatrix in="SourceAlpha" type="matrix" values="0 0 0 0 0 0 0 0 0 0 0 0 0 0 0 0 0 0 127 0" result="hardAlpha"/>
<feOffset dx="8" dy="8"/>
<feColorMatrix type="matrix" values="0 0 0 0 0 0 0 0 0 0 0 0 0 0 0 0 0 0 1 0"/>
<feBlend mode="normal" in2="BackgroundImageFix" result="effect1_dropShadow_218_1924"/>
<feBlend mode="normal" in="SourceGraphic" in2="effect1_dropShadow_218_1924" result="shape"/>
</filter>
</defs>
</svg>
