<svg width="42" height="38" viewBox="0 0 42 38" fill="none" xmlns="http://www.w3.org/2000/svg">
<g filter="url(#filter0_d_368_1158)">
<path d="M16.5286 0C17.156 0 17.8019 0.127758 18.4017 0.392395C21.8434 1.90722 23.7535 4.42586 25.2667 6.67072C25.7835 7.43726 26.0418 8.31331 26.0418 9.18935L33.885 8.69658C33.9865 8.69658 34.0787 8.69658 34.1802 8.69658C35.2598 8.69658 36.3025 9.07072 37.1329 9.75513C38.8861 11.197 39.9011 13.4327 40.0026 16.0335C40.0949 18.8076 39.1168 21.454 37.3821 23.0966C36.6439 23.7901 35.6935 24.2281 34.6785 24.3376L23.9196 25.4783C24.1779 25.9255 24.4363 26.3817 24.667 26.8654C25.0914 27.7232 25.2391 28.6996 25.073 29.6487C24.4271 33.3901 19.9611 36 16.3625 36C14.6278 36 13.0776 35.4342 11.8965 34.3665C7.6243 30.5065 4.35786 26.2084 1.10988 21.7825C-1.38147 18.3787 0.777699 13.8068 3.11219 11.6441C6.45244 8.54144 9.34979 5.60304 13.1053 1.5057C14.0003 0.529278 15.246 0.00912857 16.5193 0.00912857L16.5286 0Z" fill="white"/>
</g>
<path d="M21.4281 9.21674L17.0636 14.3361L34.1708 13.2685C35.8963 14.692 35.6657 18.397 34.1708 19.8114L15.6703 21.7734C17.3312 24.1825 19.2227 26.2996 20.5146 28.8913C20.2377 30.4882 16.4361 32.3042 14.9967 31.0084C11.0843 27.4768 7.98399 23.4069 4.83751 19.1088C4.04397 18.0228 5.40037 15.7688 6.2585 14.9749C9.94016 11.562 13.0036 8.39545 16.5192 4.57188C18.6414 5.50267 19.9609 7.054 21.4281 9.21674Z" fill="#860909"/>
<defs>
<filter id="filter0_d_368_1158" x="0" y="0" width="42.0086" height="38" filterUnits="userSpaceOnUse" color-interpolation-filters="sRGB">
<feFlood flood-opacity="0" result="BackgroundImageFix"/>
<feColorMatrix in="SourceAlpha" type="matrix" values="0 0 0 0 0 0 0 0 0 0 0 0 0 0 0 0 0 0 127 0" result="hardAlpha"/>
<feOffset dx="2" dy="2"/>
<feComposite in2="hardAlpha" operator="out"/>
<feColorMatrix type="matrix" values="0 0 0 0 0 0 0 0 0 0 0 0 0 0 0 0 0 0 1 0"/>
<feBlend mode="normal" in2="BackgroundImageFix" result="effect1_dropShadow_368_1158"/>
<feBlend mode="normal" in="SourceGraphic" in2="effect1_dropShadow_368_1158" result="shape"/>
</filter>
</defs>
</svg>
