<svg width="222" height="316" viewBox="0 0 222 316" fill="none" xmlns="http://www.w3.org/2000/svg">
<g filter="url(#filter0_d_323_1283)">
<path d="M211.637 117.432L206.707 134.288C203.949 143.687 196.543 150.915 187.425 153.699C187.093 156.968 186.633 160.365 186.097 163.864C183.16 182.814 180.912 201.101 179.278 219.796C176.953 246.434 173.25 273.225 162.14 288.498C150.187 304.92 118.901 307.193 86.8482 307.193C79.8757 307.193 74.4868 307.014 71.8817 306.912C57.1962 306.35 45.2435 297.922 40.7229 284.897C36.5343 272.791 33.5206 259.561 31.554 244.416L27.8252 215.607L18.7585 167.031C17.6347 161.054 16.7663 155.001 16.1023 148.514C11.9137 145.398 7.85286 140.469 4.99238 132.756C2.59162 126.243 1.59556 119.297 0.854895 114.24C0.701655 113.295 0.599495 112.401 0.471795 111.635C-3.15489 89.2872 15.0041 80.144 24.9391 76.3897L26.0629 73.9123C31.3241 62.2917 40.1099 53.557 51.5774 48.5001C48.487 47.0699 45.7543 44.8735 43.6855 42.0641C37.8368 34.0446 36.5343 22.2963 40.4419 12.8465C43.328 5.772 50.0194 0.944933 57.6304 0.357517C60.8229 0.102119 64.0665 0 67.31 0C74.2314 0 81.4847 0.561861 88.7892 1.66007C101.202 3.52448 110.626 12.8976 113.359 26.1017C114.202 30.137 115.019 33.7892 115.862 37.1349C127.917 37.3393 137.877 38.2842 147.582 40.1231C171.769 44.6947 178.613 62.3683 181.908 70.873C182.087 71.3328 182.291 71.8435 182.496 72.3799C182.879 72.5076 183.262 72.6353 183.67 72.7375C189.723 74.5763 198.024 77.1048 205.507 83.8728C213.884 91.4326 215.953 102.721 211.637 117.432Z" fill="white"/>
</g>
<path d="M145.718 276.596C137.494 287.911 87.0525 287.247 72.6734 286.685C66.9525 286.455 61.7934 283.799 59.8779 278.257C55.7915 266.483 53.2886 254.326 51.6795 241.811L47.8741 212.466L38.7052 163.353C36.7897 153.137 35.7936 143.406 35.2062 133.114C23.3556 137.098 21.8999 117.126 20.4952 108.417C18.8095 97.9708 31.3241 96.0043 39.88 92.6075L44.5283 82.315C48.0528 74.5509 53.8504 69.1109 61.9977 66.1738C71.7285 62.6748 81.97 60.5039 92.1605 58.946L86.0309 30.086L60.0567 30.137C58.3966 27.864 57.8858 23.6755 59.1628 20.5852C68.1273 19.8956 77.0408 20.4064 85.801 21.7089C90.2194 22.373 92.6713 26.1528 93.5141 30.2137C95.4551 39.5612 97.6771 48.5002 100.946 57.4903C115.811 57.1582 129.679 57.3626 143.828 60.0442C164.056 63.8497 160.557 81.1401 169.189 89.0575C177.004 92.6586 185.484 93.0928 191.92 98.9159C194.857 101.572 193.197 108.289 192.201 111.762L187.272 128.619C186.122 132.526 181.934 135.31 177.668 134.595L168.704 133.063C168.219 142.436 167.555 151.272 166.073 160.773C163.085 180.03 160.787 198.598 159.075 218.059C157.671 234.098 154.81 264.133 145.718 276.622V276.596ZM157.773 86.6823C156.113 76.4408 151.745 68.6767 140.738 67.4252C130.828 66.3015 121.429 65.05 111.469 65.2543C96.9109 65.5352 51.8072 71.103 47.4654 90.2068C83.9366 85.0733 119.974 82.7491 157.773 86.6823ZM129.985 117.688C147.608 120.344 164.005 122.974 181.602 128.287C184.079 119.629 185.918 111.737 186.863 103.436C172.024 96.5662 157.568 93.8334 141.631 93.2971C102.785 91.9945 62.3042 95.0082 25.0157 104.79C28.4637 112.988 31.222 120.165 33.4695 127.955C45.0136 122.974 57.6048 120.65 70.2727 118.249C90.4493 114.418 109.706 114.597 129.985 117.662V117.688ZM122.962 162.868C135.144 164.17 145.692 165.881 157.339 169.661L162.217 131.275C146.867 127.827 132.182 125.605 116.423 123.97C103.245 123.204 90.6791 123.638 77.6793 125.171L41.2081 131.607L46.2906 170.836C53.9526 168.027 61.1804 166.188 69.3021 164.834C87.1291 162.714 104.573 161.82 122.936 162.893L122.962 162.868ZM134.072 277.133C140.406 275.83 144.032 272.255 145.539 266.508C148.527 254.964 150.009 243.241 151.005 231.442C119.463 224.929 88.5338 227.305 56.6088 231.442C58.2944 246.076 60.6185 259.842 64.6283 273.838C65.9309 278.333 69.7108 280.555 74.4357 280.734C94.2292 281.475 113.818 279.789 134.046 277.133H134.072Z" fill="#860909"/>
<defs>
<filter id="filter0_d_323_1283" x="0" y="0" width="221.828" height="315.193" filterUnits="userSpaceOnUse" color-interpolation-filters="sRGB">
<feFlood flood-opacity="0" result="BackgroundImageFix"/>
<feColorMatrix in="SourceAlpha" type="matrix" values="0 0 0 0 0 0 0 0 0 0 0 0 0 0 0 0 0 0 127 0" result="hardAlpha"/>
<feOffset dx="8" dy="8"/>
<feColorMatrix type="matrix" values="0 0 0 0 0 0 0 0 0 0 0 0 0 0 0 0 0 0 1 0"/>
<feBlend mode="normal" in2="BackgroundImageFix" result="effect1_dropShadow_323_1283"/>
<feBlend mode="normal" in="SourceGraphic" in2="effect1_dropShadow_323_1283" result="shape"/>
</filter>
</defs>
</svg>
