<svg width="133" height="122" viewBox="0 0 133 122" fill="none" xmlns="http://www.w3.org/2000/svg">
<g filter="url(#filter0_d_218_1943)">
<path d="M47.8676 118C39.8206 118 32.6213 116.412 25.8404 113.129C16.1625 108.451 10.1434 99.0308 9.58549 88.044C3.99552 82.2288 2.26809 73.8814 4.60708 66.0384C2.77237 62.6265 2.03206 58.7103 2.51488 54.5903C-2.79612 43.2817 0.42266 29.2693 11.0554 20.128C25.5185 7.69283 53.9404 0 71.9764 0C74.6694 0 77.2123 0.160941 79.5405 0.472089C89.6797 1.8347 99.6043 5.40753 108.231 10.7936C118.359 17.1131 123.509 28.4646 121.878 40.653C124.132 42.4555 128.423 46.082 128.702 52.6376C128.97 58.8069 126.17 63.2488 124.496 65.8989C124.228 66.3281 123.885 66.8752 123.659 67.2722C126.267 73.4952 125.934 80.0293 122.747 85.2008C117.329 93.9987 110.044 100.758 101.654 104.749C89.4544 110.565 77.5449 113.29 63.2427 116.251C57.6528 117.41 52.6314 117.968 47.8783 117.968L47.8676 118Z" fill="white"/>
</g>
<path d="M61.0539 105.779C50.4426 107.979 40.2283 108.172 30.5183 103.473C23.512 100.082 19.8748 92.8078 20.3147 85.0613C20.4327 82.8618 19.5529 82.5936 18.1367 81.3811C13.1583 77.1324 13.3085 69.697 17.3212 64.3324C13.0617 61.5965 12.2785 57.2941 13.8986 52.8307C7.96528 44.9018 10.7763 34.5266 18.0401 28.2822C30.9796 17.156 61.2256 8.8516 78.1028 11.1262C86.8364 12.3064 95.1731 15.3213 102.544 19.9134C109.701 24.3875 112.501 32.0696 111.095 40.1595C109.647 48.4961 117.769 48.4746 117.973 53.1097C118.263 59.9335 110.044 62.6479 113.735 71.403C114.808 73.9458 115.183 77.0144 113.595 79.6001C109.582 86.1128 104.035 91.7456 97.0292 95.0824C85.5489 100.544 73.7145 103.14 61.0539 105.769V105.779ZM69.9699 35.1382C82.5661 32.6919 94.3469 31.1255 106.954 32.134C105.216 22.8318 85.4738 16.7161 78.0062 15.4071C62.2019 12.6283 36.7735 21.0829 23.1472 29.3337C16.1625 33.561 11.3665 42.1229 16.6238 48.7321C19.9285 47.2408 23.0078 45.9425 26.5377 44.9233C40.8828 40.7818 55.0026 38.0458 69.9699 35.1382ZM76.9976 62.6265C84.1004 64.311 88.1454 62.0256 94.025 57.9593C105.302 50.1591 113.81 58.0451 113.595 54.7727C113.574 54.4079 113.284 53.732 113.016 53.4745L108.359 49.0111C100.581 49.3437 92.8555 50.1698 84.9051 51.4895C66.4292 54.5474 48.5542 58.3241 30.4324 62.9269C26.6235 63.8925 23.1902 65.2873 20.1001 67.5405C18.8555 68.4417 18.4907 71.1133 18.6838 72.8192C30.9582 65.0406 36.8164 76.0166 45.5071 69.6005C49.4341 66.7036 54.273 65.6092 59.1763 66.7251C67.1696 68.5598 66.322 60.0944 77.0084 62.6265H76.9976ZM56.5368 101.584C70.957 98.9771 84.5832 95.6618 97.5228 89.2028C102.49 86.7243 106.149 82.5184 109.593 78.3662C110.977 76.6925 110.806 74.375 109.593 72.6798L82.3623 79.9327C63.5002 84.954 47.1487 90.7371 26.7201 92.6039C27.793 95.3077 29.8531 96.8634 32.0955 98.1617C39.6489 102.561 47.771 103.172 56.5583 101.584H56.5368Z" fill="#8E0A0A"/>
<path d="M39.574 29.5268C39.8851 32.6919 38.7263 37.0802 36.8058 36.7154C34.3702 36.2541 33.5978 31.5761 35.7758 28.6363C36.1299 28.1642 37.3423 27.66 37.8681 27.6921C38.4904 27.7243 39.5096 28.8509 39.574 29.5376V29.5268Z" fill="#8E0A0A"/>
<path d="M90.1413 28.25C90.3129 28.9689 88.8752 30.3851 88.1778 30.4495C84.8839 30.7606 81.2038 26.1793 83.0385 24.248C85.3775 22.7245 89.3902 25.1707 90.1413 28.25Z" fill="#8E0A0A"/>
<path d="M77.8776 23.7223C79.5621 26.2973 80.1629 30.0096 77.9205 30.9537C77.3518 31.1898 75.8497 30.7499 75.4742 30.2349C74.015 28.2393 73.4035 25.2673 74.6052 23.1429C75.0236 22.4133 77.384 22.9819 77.8776 23.7115V23.7223Z" fill="#8E0A0A"/>
<path d="M29.9283 37.724C29.1344 39.8913 27.6537 42.2946 25.3254 41.9298C24.0379 41.7259 24.0487 38.9578 24.5422 37.8205C25.1645 36.3935 26.5164 35.3313 28.4691 35.1919C29.2845 35.1382 30.2716 36.7583 29.9176 37.7132L29.9283 37.724Z" fill="#8E0A0A"/>
<path d="M50.7645 35.0309C49.5735 36.6617 47.1594 34.9558 46.2045 33.9794C45.3891 33.1425 44.1767 30.6533 45.5501 29.8808C48.0822 28.4538 51.8481 32.5095 50.7645 35.0309Z" fill="#8E0A0A"/>
<path d="M59.2835 23.379C60.6569 24.1086 58.6613 29.1299 56.5047 30.4067C55.1957 29.4303 54.788 28.1214 54.9704 26.5871C55.1099 25.4712 56.3866 23.5614 57.5561 23.1537C57.8673 23.0464 58.9938 23.2288 59.2728 23.379H59.2835Z" fill="#8E0A0A"/>
<path d="M69.3694 29.2908C67.8994 31.7907 65.0025 32.2413 62.5455 31.6619C62.3309 30.9967 62.3845 29.5805 62.5562 28.7972C64.8952 27.5741 67.0947 27.1878 69.3694 29.2908Z" fill="#8E0A0A"/>
<defs>
<filter id="filter0_d_218_1943" x="0" y="0" width="132.72" height="122" filterUnits="userSpaceOnUse" color-interpolation-filters="sRGB">
<feFlood flood-opacity="0" result="BackgroundImageFix"/>
<feColorMatrix in="SourceAlpha" type="matrix" values="0 0 0 0 0 0 0 0 0 0 0 0 0 0 0 0 0 0 127 0" result="hardAlpha"/>
<feOffset dx="4" dy="4"/>
<feColorMatrix type="matrix" values="0 0 0 0 0 0 0 0 0 0 0 0 0 0 0 0 0 0 1 0"/>
<feBlend mode="normal" in2="BackgroundImageFix" result="effect1_dropShadow_218_1943"/>
<feBlend mode="normal" in="SourceGraphic" in2="effect1_dropShadow_218_1943" result="shape"/>
</filter>
</defs>
</svg>
