<svg width="312" height="361" viewBox="0 0 312 361" fill="none" xmlns="http://www.w3.org/2000/svg">
<g filter="url(#filter0_d_323_1280)">
<path d="M278.68 281.755C261.619 293.504 244.431 302.009 226.246 311.05L223.871 312.224C219.733 314.268 215.749 316.413 211.535 318.66C203.49 322.977 195.164 327.446 185.842 331.226L151.056 345.35C139.768 349.921 129.73 352.143 120.306 352.143C98.5205 352.143 86.5677 340.191 80.8468 334.444C80.387 333.984 79.9784 333.55 79.5698 333.167C68.8174 326.425 50.5564 314.446 47.0829 291.052C45.6782 290.669 44.4012 290.286 43.2519 289.954C41.7451 289.494 39.8551 288.932 39.2677 288.932H39.0122C21.4662 288.932 7.62365 278.537 2.92428 261.809C-1.54522 245.872 -2.5158 225.261 11.9654 207.307C11.0715 205.315 10.2287 203.399 9.43696 201.586L9.00267 200.59C-5.17205 167.873 -1.80069 126.116 18.0184 88.9297C28.4642 69.3151 40.749 52.8164 56.6604 36.9561C77.4756 16.2433 99.6187 4.44395 124.418 0.89391C128.53 0.280954 132.642 0 136.575 0C165.818 0 185.459 16.0646 201.549 31.1075C207.73 36.8795 222.185 50.3901 222.773 72.4565C222.926 77.8965 222.185 82.9279 220.959 87.5761C221.547 87.5761 222.16 87.5761 222.747 87.5761C224.739 87.5761 226.757 87.7038 228.698 87.9847C236.922 89.1596 243.179 92.8629 247.827 96.8726C249.513 96.6683 251.275 96.5151 253.114 96.5151C261.21 96.5151 268.77 99.0946 275.002 103.998C286.955 113.371 294.898 127.495 296.251 141.746C297.605 155.895 293.417 169.763 285.142 180.771C297.324 192.851 298.601 207.358 299.393 216.322L299.495 217.421C299.623 218.085 300.057 219.617 300.363 220.792C303.249 231.391 310.911 259.587 278.68 281.781V281.755Z" fill="white"/>
</g>
<path d="M212.506 289.341C199.889 295.598 188.753 302.468 176.239 307.551L141.428 321.674C108.123 335.185 102.096 317.154 93.9231 312.02C83.5027 305.482 72.6739 298.51 72.0354 284.386C71.78 278.742 74.8702 272.408 78.1394 267.223C77.5775 265.359 76.2494 262.652 75.1001 260.762C58.9077 273.787 52.6505 263.29 39.0887 263.367C33.3422 263.392 29.1537 260.813 27.4936 254.887C21.7982 234.583 27.9789 222.299 45.5504 212.159C38.9356 205.877 35.7686 198.138 32.4228 190.425C20.0359 161.846 26.191 127.827 40.5445 100.933C49.79 83.5663 60.7466 68.932 74.666 55.0383C89.5303 40.2252 106.693 29.2175 128.019 26.1527C152.384 22.6538 167.351 34.0956 184.079 49.7515C190.873 56.1109 196.926 62.879 197.207 73.1205C197.488 83.362 191.307 92.5818 186.48 102.032C195.598 105.301 204.077 109.642 209.747 116.845C214.804 114.469 219.733 112.477 225.071 113.244C233.525 114.444 236.922 125.554 239.169 125.426C243.715 125.171 252.654 118.939 259.167 124.047C265.067 128.67 270.047 136.408 270.762 144.147C271.988 156.942 264.454 169.38 253.318 174.769L240.983 180.745L243.562 189.531C251.582 190.476 259.576 192.698 265.246 197.27C272.933 203.425 273.214 211.265 274.006 219.923C275.002 230.854 286.188 245.54 264.122 260.736C247.853 271.923 230.715 280.3 212.429 289.366L212.506 289.341ZM93.1825 185.623L150.265 128.44L183.288 92.5052C189.417 79.7864 186.506 64.8966 176.468 54.8595C167.376 45.7673 156.547 37.7223 143.445 35.6536C127.278 33.1251 111.316 38.7694 97.8052 47.7594C78.7013 60.4527 65.3949 78.1518 53.3911 97.4089C33.6997 128.976 30.5329 167.465 48.2577 200.36C52.3185 207.894 60.7466 210.627 68.1021 206.234C77.2966 200.743 85.0863 193.745 93.1825 185.649V185.623ZM93.3868 247.2C101.406 247.89 106.259 245.233 110.677 239.436C123.626 222.503 134.276 237.725 141.121 225.976C160.966 191.957 179.533 202.378 187.246 198.01C203.566 188.765 205.048 177.068 225.965 173.901C234.598 172.598 244.967 170.248 252.169 164.885C261.031 158.27 262.845 143.559 257.864 134.288C251.173 129.334 233.831 145.398 226.833 128.082C226.22 126.575 223.105 123.357 221.572 123.689C218.431 124.379 213.093 126.805 210.718 128.567C207.73 134.365 203.158 139.013 197.028 142.359C204.409 147.441 206.938 156.993 200.808 164.4C193.606 173.109 181.781 179.136 170.671 178.881C161.758 178.677 155.398 175.203 152.972 166.494L137.495 174.743C136.192 185.266 131.416 195.558 121.328 199.696C114.611 202.454 107.485 199.696 100.896 196.069C83.4773 203.22 71.3202 223.473 52.9825 216.424C45.9845 221.073 39.3186 226.13 35.4365 233.792C32.9591 238.695 32.4483 248.017 38.2714 250.316C44.9118 252.921 52.1652 254.939 59.3164 256.829C78.7523 247.174 72.3929 245.438 93.3357 247.226L93.3868 247.2ZM195.521 150.915C193.682 149.408 189.622 147.773 187.068 147.109L160.276 162.535C161.604 166.06 163.443 169.584 165.844 171.985C178.18 174.028 202.264 156.406 195.521 150.915ZM129.756 178.702L109.4 190.936C113.896 198.164 131.109 187.667 129.756 178.702ZM109.937 254.479C100.896 256.624 93.3102 256.267 82.8899 256.599C84.0648 258.846 86.2356 261.988 88.2021 263.035C90.322 264.158 94.9958 263.265 96.9623 262.294C110.167 255.756 122.783 250.392 136.652 245.591C164.158 236.065 203.771 212.926 229.183 197.116C230.971 196.018 234.087 192.468 233.806 190.604C233.499 188.433 230.435 183.708 228.366 183.35C224.816 183.121 219.044 184.142 215.928 185.343C205.993 196.503 207.832 205.34 190.847 209.656C186.02 210.882 181.066 211.802 175.6 211.776C158.207 211.7 165.052 217.727 148.783 234.43C143.777 239.564 137.469 241.3 130.318 240.534C117.139 239.129 117.088 252.768 109.937 254.479ZM126.538 314.651C143.675 312.761 157.569 306.81 172.254 299.506L205.763 282.828C225.608 272.944 245.248 263.086 262.513 249.09C268.31 244.391 268.566 235.069 267.723 228.096C253.523 242.858 237.969 252.64 220.193 260.915L173.608 282.649L127.151 302.647L107.153 311.177C112.823 316.004 119.514 315.417 126.538 314.625V314.651Z" fill="#860909"/>
<path d="M124.316 89.4917C123.218 95.3148 117.318 97.6644 112.082 96.4896C105.595 95.0338 102.377 89.3384 103.475 83.2344C104.497 77.5135 110.856 74.321 116.015 75.2915C122.911 76.5685 125.823 81.651 124.316 89.4917Z" fill="#8E0A0A"/>
<path d="M133.28 67.8082C128.632 66.0715 123.371 60.4272 125.976 54.885C129.245 47.9382 140.176 47.6062 145.259 53.2249C148.272 56.5451 147.736 61.7808 145.361 64.8456C142.5 68.5233 138.235 69.6471 133.28 67.8082Z" fill="#8E0A0A"/>
<path d="M133.434 141.21C131.237 145.884 125.21 142.461 123.396 140.367C121.481 138.145 119.336 131.786 122.605 130.074C128.249 127.086 136.064 135.617 133.434 141.21Z" fill="#8E0A0A"/>
<path d="M118.621 45.2822C120.945 49.2153 118.212 59.559 113.206 58.946C107.23 58.2054 107.97 46.7124 111.878 43.5966C112.797 42.8559 114.381 42.0131 115.122 41.8854C116.092 41.7322 117.573 43.4689 118.646 45.2822H118.621Z" fill="#8E0A0A"/>
<path d="M94.1276 80.7315C86.8742 80.6293 81.332 72.1757 84.8821 66.2504C87.0785 64.718 92.2633 67.7062 93.5913 69.9026C95.5068 73.0951 96.5794 76.1343 94.1531 80.7315H94.1276Z" fill="#8E0A0A"/>
<path d="M85.2652 175.459C78.3694 176.582 75.9941 162.791 81.6895 160.569C85.1885 159.19 87.5382 163.966 88.0745 166.213C88.6109 168.461 88.8919 174.871 85.2908 175.459H85.2652Z" fill="#8E0A0A"/>
<path d="M85.2653 124.788C89.5816 127.188 89.7092 137.736 85.4951 139.601C79.1356 139.677 77.1181 129.564 80.0297 125.809C80.8469 124.736 84.2437 124.226 85.2653 124.788Z" fill="#8E0A0A"/>
<path d="M111.214 125.528C108.787 128.159 104.548 124.047 103.577 121.927C102.377 119.322 101.458 113.269 104.905 112.631C110.55 111.584 115.479 120.906 111.214 125.554V125.528Z" fill="#8E0A0A"/>
<path d="M169.981 83.9495C173.506 88.8276 162.294 97.3835 158.233 92.4543C154.172 87.5251 166.61 79.3013 169.981 83.9495Z" fill="#8E0A0A"/>
<path d="M150.775 111.609C152.308 115.619 144.697 123.74 140.074 122.412C138.797 122.029 137.341 118.607 137.929 117.304C139.844 113.244 146.101 108.289 150.775 111.609Z" fill="#8E0A0A"/>
<path d="M53.7743 148.948C57.9373 151.86 61.3342 161.003 56.5327 163.889C50.7095 164.221 48.4875 154.644 49.7134 150.557C49.9943 149.638 53.0081 148.412 53.7743 148.948Z" fill="#8E0A0A"/>
<path d="M63.1731 118.965C60.3382 123 50.1988 119.654 50.1222 114.751C50.0711 111.405 55.3323 110.613 58.014 111.277C60.4403 111.89 65.676 115.389 63.1731 118.939V118.965Z" fill="#8E0A0A"/>
<defs>
<filter id="filter0_d_323_1280" x="0" y="0" width="311.271" height="360.143" filterUnits="userSpaceOnUse" color-interpolation-filters="sRGB">
<feFlood flood-opacity="0" result="BackgroundImageFix"/>
<feColorMatrix in="SourceAlpha" type="matrix" values="0 0 0 0 0 0 0 0 0 0 0 0 0 0 0 0 0 0 127 0" result="hardAlpha"/>
<feOffset dx="8" dy="8"/>
<feColorMatrix type="matrix" values="0 0 0 0 0 0 0 0 0 0 0 0 0 0 0 0 0 0 1 0"/>
<feBlend mode="normal" in2="BackgroundImageFix" result="effect1_dropShadow_323_1280"/>
<feBlend mode="normal" in="SourceGraphic" in2="effect1_dropShadow_323_1280" result="shape"/>
</filter>
</defs>
</svg>
