<svg width="267" height="299" viewBox="0 0 267 299" fill="none" xmlns="http://www.w3.org/2000/svg">
<g filter="url(#filter0_d_323_1293)">
<path d="M232.335 41.1192C208.864 14.9919 175.33 0 140.34 0C138.22 0 136.1 0.0510204 133.98 0.17872C96.0791 2.17083 64.486 25.5398 51.5628 61.219C40.6316 91.4071 43.5175 123.281 59.3523 150.251L43.3389 173.186L6.96967 222.043C1.19763 229.833 -1.15179 239.691 0.533849 249.167C2.21949 258.744 7.94021 267.351 16.2407 272.765L33.5569 284.105C39.9675 288.294 46.7868 290.413 53.8359 290.413C60.2209 290.413 72.4544 288.472 82.6959 275.447C87.1143 269.777 91.5585 264.184 96.0025 258.616C109.488 241.607 123.407 224.086 136.483 205.545C141.234 205.979 145.882 206.183 150.428 206.183C163.99 206.183 177.092 204.242 189.351 200.411C220.229 190.783 244.926 165.958 253.814 135.668C263.749 101.827 255.909 67.3486 232.335 41.1192ZM100.472 116.411C93.9848 99.5032 98.301 82.2893 108.389 67.8848C126.676 41.8087 161.232 50.3135 181.408 65.9183C188.994 71.7925 195.072 79.9397 200.538 87.857C208.532 99.4266 203.5 121.416 195.685 131.045C190.756 137.123 185.265 143.483 177.986 147.799C161.002 157.938 135.896 157.53 120.878 145.73C111.275 138.222 104.737 127.546 100.472 116.411Z" fill="white"/>
</g>
<path d="M213.333 58.1796C193.616 36.2154 164.705 24.135 135.334 25.6674C107.291 27.1487 84.8926 44.1583 75.5705 69.9024C66.2994 95.5444 70.0536 122.77 86.246 144.734C89.6173 149.306 88.7746 152.728 85.7609 157.019L64.0775 188.126L27.4784 237.291C24.005 241.939 25.3077 248.17 30.2114 251.388L47.5528 262.728C53.7846 266.815 58.6628 264.695 62.5959 259.663C81.7254 235.273 101.187 211.802 118.81 186.211C120.725 183.453 122.206 179.366 125.527 178.293C144.528 181.716 163.428 181.767 181.74 176.046C205.416 168.639 223.115 149.587 229.296 128.491C236.958 102.44 230.624 77.4111 213.333 58.1796ZM195.685 131.045C190.756 137.123 185.265 143.483 177.986 147.799C161.002 157.938 135.896 157.53 120.878 145.73C111.275 138.221 104.737 127.546 100.472 116.41C93.9848 99.5031 98.301 82.2892 108.389 67.8847C126.676 41.8086 161.232 50.3134 181.408 65.9182C188.994 71.7924 195.072 79.9396 200.538 87.8569C208.532 99.4265 203.5 121.416 195.685 131.045Z" fill="#860909"/>
<path d="M195.685 131.045C190.756 137.123 185.265 143.483 177.986 147.799C161.002 157.938 135.896 157.53 120.878 145.73C111.275 138.222 104.737 127.546 100.472 116.411C93.9847 99.5033 98.3009 82.2894 108.389 67.885C126.676 41.8088 161.231 50.3136 181.408 65.9184C188.993 71.7926 195.072 79.9398 200.538 87.8571C208.532 99.4267 203.5 121.416 195.685 131.045Z" fill="white"/>
<defs>
<filter id="filter0_d_323_1293" x="0" y="0" width="266.024" height="298.413" filterUnits="userSpaceOnUse" color-interpolation-filters="sRGB">
<feFlood flood-opacity="0" result="BackgroundImageFix"/>
<feColorMatrix in="SourceAlpha" type="matrix" values="0 0 0 0 0 0 0 0 0 0 0 0 0 0 0 0 0 0 127 0" result="hardAlpha"/>
<feOffset dx="8" dy="8"/>
<feColorMatrix type="matrix" values="0 0 0 0 0 0 0 0 0 0 0 0 0 0 0 0 0 0 1 0"/>
<feBlend mode="normal" in2="BackgroundImageFix" result="effect1_dropShadow_323_1293"/>
<feBlend mode="normal" in="SourceGraphic" in2="effect1_dropShadow_323_1293" result="shape"/>
</filter>
</defs>
</svg>
