<svg width="34" height="34" viewBox="0 0 34 34" fill="none" xmlns="http://www.w3.org/2000/svg">
<g opacity="0.9">
<path d="M8.92027 33.3462C7.44107 33.3462 6.06516 32.7767 5.04337 31.7376C2.90758 29.5745 2.94815 26.0801 2.97029 24.2054L2.9998 21.7464C1.85997 21.2842 0.812359 20.4226 0.321753 19.1321C-0.323781 17.4311 0.0192745 15.4232 1.19599 14.0107C3.19161 11.6146 5.22412 9.58082 7.37467 7.42505L7.96488 6.83341C9.79819 4.99194 11.6942 3.0913 13.7304 1.28681C14.6821 0.443726 15.8109 0 17.0023 0C18.2824 0 19.5181 0.532473 20.4882 1.50128L21.167 2.17796C21.451 2.14838 21.7572 2.12989 22.0781 2.12989C23.0851 2.12989 23.9889 2.2815 24.3282 2.34436C26.7186 2.79548 28.0244 5.14724 28.0465 7.13292L28.0613 8.59723L32.0894 12.502C33.3178 13.6927 33.8674 15.3752 33.9781 16.5547C34.1809 18.7808 32.9599 20.8293 31.0381 21.6983C31.1451 23.7099 31.2336 26.0986 30.9422 28.528C30.636 31.0757 28.5593 32.9986 26.0066 33.1058L22.7753 33.2426C22.6867 33.2463 22.5945 33.25 22.506 33.25C20.23 33.25 14.6969 32.7841 13.6603 32.9172C12.2033 33.1021 10.8237 33.2352 9.31127 33.3314C9.17848 33.3388 9.04937 33.3425 8.92395 33.3425L8.92027 33.3462Z" fill="white"/>
<path d="M20.2816 27.6443C20.182 26.0728 20.1193 24.4938 20.1488 22.9667L20.2005 20.3339L18.0315 20.43L14.5567 20.589C14.339 22.3159 15.2022 28.9903 13.1918 29.2491C11.7717 29.4303 10.4474 29.5523 9.07148 29.6411C6.57419 29.8038 6.64059 25.9618 6.65903 24.198L6.72543 18.5664L4.95851 18.4554C4.52692 18.4296 3.89615 18.1522 3.77073 17.8194C3.60473 17.3794 3.7154 16.7582 4.02894 16.381C5.93972 14.0884 7.94272 12.0843 10.0527 9.96915C12.1627 7.85405 14.0403 5.94602 16.1724 4.05278C16.7662 3.524 17.3675 3.60166 17.8839 4.11564L20.289 6.51547C20.621 5.53926 22.9339 5.83878 23.6495 5.9756C24.0774 6.05695 24.3577 6.7965 24.3614 7.16627L24.3909 10.1799L29.5294 15.1608C29.9536 15.5712 30.2561 16.3182 30.3077 16.8913C30.3741 17.6235 29.9093 18.2743 29.2675 18.4111L27.1907 18.8511L27.3235 21.1807C27.4563 23.5065 27.567 25.7733 27.2866 28.0843C27.1944 28.8609 26.6042 29.3822 25.8591 29.4118L22.6277 29.5486C21.4952 29.5967 20.3739 28.957 20.2927 27.6443H20.2816Z" fill="#860909"/>
</g>
</svg>
