<svg width="41" height="40" viewBox="0 0 41 40" fill="none" xmlns="http://www.w3.org/2000/svg">
<g filter="url(#filter0_d_331_1264)">
<path d="M10.1532 38C8.46955 38 6.90347 37.3511 5.74045 36.167C3.30946 33.7019 3.35564 29.7199 3.38083 27.5835L3.41442 24.7813C2.11705 24.2546 0.924641 23.2728 0.366225 21.8022C-0.368533 19.8638 0.0219385 17.5757 1.3613 15.9661C3.63275 13.2355 5.94619 10.9179 8.39398 8.4613L9.06576 7.78709C11.1525 5.68862 13.3106 3.52273 15.6282 1.4664C16.7114 0.505654 17.9962 0 19.3524 0C20.8093 0 22.2158 0.606785 23.3201 1.7108L24.0926 2.48192C24.4159 2.44821 24.7644 2.42714 25.1297 2.42714C26.2759 2.42714 27.3045 2.59991 27.6908 2.67154C30.4115 3.18563 31.8978 5.8656 31.923 8.12841L31.9398 9.79707L36.5247 14.2468C37.9228 15.6037 38.5484 17.521 38.6744 18.8652C38.9053 21.4019 37.5156 23.7363 35.3281 24.7265C35.4499 27.0189 35.5506 29.741 35.2189 32.5094C34.8705 35.4127 32.5066 37.6039 29.6012 37.7261L25.9232 37.882C25.8224 37.8862 25.7175 37.8904 25.6167 37.8904C23.0262 37.8904 16.7282 37.3595 15.5484 37.5112C13.89 37.7219 12.3197 37.8736 10.5983 37.9831C10.4471 37.9916 10.3002 37.9958 10.1574 37.9958L10.1532 38Z" fill="white"/>
</g>
<path d="M23.0849 31.5024C22.9715 29.7115 22.9002 27.9122 22.9338 26.1719L22.9925 23.1717L20.5238 23.2812L16.5687 23.4624C16.3209 25.4303 17.3034 33.0362 15.0152 33.3311C13.3987 33.5376 11.8914 33.6767 10.3253 33.7778C7.48285 33.9632 7.55843 29.5851 7.57942 27.5751L7.655 21.1575L5.64386 21.0311C5.15262 21.0016 4.43466 20.6855 4.29191 20.3063C4.10297 19.8049 4.22893 19.0969 4.58581 18.6671C6.76069 16.0546 9.04054 13.7707 11.4421 11.3604C13.8438 8.95013 15.9809 6.77581 18.4077 4.61835C19.0836 4.01578 19.768 4.10427 20.3558 4.68998L23.0933 7.42473C23.4712 6.31229 26.1037 6.65361 26.9183 6.80952C27.4053 6.90223 27.7244 7.74498 27.7286 8.16636L27.7622 11.6006L33.6108 17.2766C34.0937 17.7443 34.438 18.5955 34.4968 19.2486C34.5723 20.083 34.0433 20.8246 33.3127 20.9805L30.9489 21.4819L31.1001 24.1366C31.2512 26.7871 31.3772 29.3702 31.0581 32.0038C30.9531 32.8887 30.2813 33.4828 29.4332 33.5165L25.7552 33.6725C24.4663 33.7272 23.1899 32.9982 23.0975 31.5024H23.0849Z" fill="#860909"/>
<defs>
<filter id="filter0_d_331_1264" x="0" y="0" width="40.6994" height="40" filterUnits="userSpaceOnUse" color-interpolation-filters="sRGB">
<feFlood flood-opacity="0" result="BackgroundImageFix"/>
<feColorMatrix in="SourceAlpha" type="matrix" values="0 0 0 0 0 0 0 0 0 0 0 0 0 0 0 0 0 0 127 0" result="hardAlpha"/>
<feOffset dx="2" dy="2"/>
<feColorMatrix type="matrix" values="0 0 0 0 0 0 0 0 0 0 0 0 0 0 0 0 0 0 1 0"/>
<feBlend mode="normal" in2="BackgroundImageFix" result="effect1_dropShadow_331_1264"/>
<feBlend mode="normal" in="SourceGraphic" in2="effect1_dropShadow_331_1264" result="shape"/>
</filter>
</defs>
</svg>
