<svg width="15" height="8" viewBox="0 0 15 8" fill="none" xmlns="http://www.w3.org/2000/svg">
<g filter="url(#filter0_d_598_1038)">
<path d="M1.74178 6.62713C1.23142 6.62713 0.754376 6.39693 0.433317 5.99713C-0.178511 5.23386 -0.0785593 4.14195 0.337908 2.26861L0.360623 2.16563C0.563556 1.2176 1.41921 0.502789 2.48991 0.389207C3.57878 0.272597 4.64342 0.242308 5.67323 0.212019C6.09878 0.199904 6.52737 0.187789 6.95898 0.169616L10.7481 0.00757201C10.8692 0.00302874 10.9934 0 11.1176 0C11.4326 0 11.7218 0.0181726 11.9763 0.0545189C13.1969 0.227163 14.0465 1.25697 13.998 2.50335C13.9693 3.24996 13.8526 3.96022 13.6527 4.61597C13.3453 5.62609 12.4245 6.30758 11.3099 6.34999C11.3099 6.34999 6.1427 6.55141 6.13362 6.55141L4.20272 6.5923C4.20272 6.5923 1.74935 6.62864 1.74178 6.62864V6.62713Z" fill="white"/>
</g>
<path d="M4.17095 5.07639L1.74484 5.11273C1.21782 5.12031 1.75696 2.88198 1.84177 2.48217C1.91597 2.13689 2.30821 1.93092 2.65047 1.89458C4.11643 1.73708 5.54454 1.74465 7.02262 1.68104L10.8117 1.519C11.1297 1.50537 11.4735 1.51143 11.7628 1.55232C12.2247 1.61744 12.5018 1.99604 12.4852 2.4428C12.4624 3.03646 12.3746 3.61648 12.205 4.17227C12.0747 4.59934 11.6825 4.81893 11.2509 4.83559L6.10185 5.03701L4.17095 5.0779V5.07639Z" fill="#860909"/>
<defs>
<filter id="filter0_d_598_1038" x="0" y="0" width="14.5" height="7.12866" filterUnits="userSpaceOnUse" color-interpolation-filters="sRGB">
<feFlood flood-opacity="0" result="BackgroundImageFix"/>
<feColorMatrix in="SourceAlpha" type="matrix" values="0 0 0 0 0 0 0 0 0 0 0 0 0 0 0 0 0 0 127 0" result="hardAlpha"/>
<feOffset dx="0.5" dy="0.5"/>
<feComposite in2="hardAlpha" operator="out"/>
<feColorMatrix type="matrix" values="0 0 0 0 0 0 0 0 0 0 0 0 0 0 0 0 0 0 1 0"/>
<feBlend mode="normal" in2="BackgroundImageFix" result="effect1_dropShadow_598_1038"/>
<feBlend mode="normal" in="SourceGraphic" in2="effect1_dropShadow_598_1038" result="shape"/>
</filter>
</defs>
</svg>
