<svg width="38" height="38" viewBox="0 0 38 38" fill="none" xmlns="http://www.w3.org/2000/svg">
<g filter="url(#filter0_d_368_1144)">
<path d="M34.1597 19.4367C35.4451 21.3883 34.6385 23.7936 34.0336 24.7946L31.0918 29.6519C30.2601 31.0274 28.8558 31.816 27.2391 31.816H27.2355C26.4865 31.816 25.8348 31.6467 25.3127 31.5099C25.2227 31.4883 25.1327 31.4631 25.0426 31.4415C24.9166 32.5397 24.5241 34.07 23.0298 35.2042C22.4105 35.6759 21.658 35.9316 20.8838 35.9388C20.8838 35.9388 14.3377 36 14.3269 36C11.936 36 10.1681 34.0448 9.71797 32.2084L9.57754 31.6359C9.08064 31.852 8.46852 32.0428 7.73757 32.0428H7.73397C6.10644 32.0428 4.69856 31.1138 3.97122 29.5619C3.25467 28.028 2.42651 26.5805 1.20586 24.7117C0.514525 23.6567 -0.734924 20.9778 2.16366 18.4825C1.55873 18.0756 0.93941 17.4887 0.496522 16.6137C-0.173212 15.2887 -0.166011 13.5027 0.521727 12.0696C1.50112 10.0172 2.45891 8.34287 3.53913 6.79456C4.50412 5.41548 6.04163 4.62332 7.76638 4.62332C8.31729 4.62332 8.8718 4.70614 9.4119 4.86457C9.57754 3.23705 10.5749 1.40068 12.6057 0.961392C12.6526 0.95059 17.085 0 19.8396 0C20.6281 0 23.0298 0 24.3009 1.984C24.877 2.88418 25.0174 3.80956 25.0282 4.56931C25.7952 4.29566 26.5549 4.13723 27.3003 4.09402C27.3687 4.09402 27.4407 4.08682 27.5091 4.08682C28.4381 4.08682 29.3311 4.44329 30.0044 5.08782C32.3341 7.32386 33.8716 9.5095 34.8366 11.958C35.5243 13.7043 35.2435 15.5047 34.0588 16.891C33.6159 17.4131 33.1082 17.7984 32.6257 18.1116C32.7338 18.1728 32.8454 18.234 32.9498 18.2953C33.4359 18.5761 33.85 18.965 34.1597 19.4367Z" fill="white"/>
</g>
<path d="M14.3305 32.3992C13.8336 32.4028 13.3223 31.7907 13.2143 31.355L12.6742 29.155C12.4221 28.1288 11.5939 27.4086 10.4597 27.4662C8.69536 27.5599 7.76277 29.1766 7.22987 28.0352C6.34769 26.1556 5.36109 24.4884 4.21606 22.7421C3.21146 21.2046 5.06223 21.5863 6.54213 18.9433C6.78338 18.5113 6.98502 17.6903 6.77617 17.2618C6.01282 15.6919 4.26287 16.0916 3.70836 14.9933C3.53553 14.6513 3.57513 14.0284 3.76957 13.6251C4.57253 11.9399 5.43311 10.3772 6.49172 8.86492C7.05343 8.06196 8.11564 8.10157 8.9078 8.54446C9.56673 8.91533 10.5821 9.29341 11.3095 9.00175C12.7246 8.44004 13.2935 6.85932 12.991 5.42984C12.9442 5.20299 13.1278 4.54046 13.3691 4.49005C14.5825 4.2272 20.7038 3.04976 21.2691 3.93554C21.6327 4.50085 21.2403 5.66748 21.4203 6.2688C22 8.21319 24.0884 8.88653 25.8564 8.12318C26.3677 7.90353 26.9474 7.7307 27.5091 7.69829C29.2195 9.33662 30.6237 11.101 31.4843 13.2866C32.2549 15.2418 28.9998 15.2598 27.9484 17.305C27.4335 18.3096 28.0888 19.5051 28.953 20.1496C29.5939 20.6285 30.4185 21.003 31.1494 21.4242C31.3691 21.7591 31.1747 22.5693 30.9514 22.9401L28.0096 27.7975C27.2895 28.9893 25.6728 27.2574 23.2711 27.8839C20.4553 28.6185 22.2701 31.2686 20.8478 32.3488L14.3305 32.4064V32.3992ZM18.0104 22.0904C20.7866 21.5971 22.3205 18.396 20.9702 15.9727C20.16 14.5217 18.2877 13.7727 16.689 14.0428C15.1803 14.2948 13.8264 15.4506 13.3511 16.8549C12.8758 18.2592 13.4771 19.6779 14.3485 20.6825C15.2199 21.6871 16.4729 22.3604 18.014 22.0904H18.0104Z" fill="#860909"/>
<defs>
<filter id="filter0_d_368_1144" x="0" y="0" width="37.2058" height="38" filterUnits="userSpaceOnUse" color-interpolation-filters="sRGB">
<feFlood flood-opacity="0" result="BackgroundImageFix"/>
<feColorMatrix in="SourceAlpha" type="matrix" values="0 0 0 0 0 0 0 0 0 0 0 0 0 0 0 0 0 0 127 0" result="hardAlpha"/>
<feOffset dx="2" dy="2"/>
<feComposite in2="hardAlpha" operator="out"/>
<feColorMatrix type="matrix" values="0 0 0 0 0 0 0 0 0 0 0 0 0 0 0 0 0 0 1 0"/>
<feBlend mode="normal" in2="BackgroundImageFix" result="effect1_dropShadow_368_1144"/>
<feBlend mode="normal" in="SourceGraphic" in2="effect1_dropShadow_368_1144" result="shape"/>
</filter>
</defs>
</svg>
