<svg width="267" height="310" viewBox="0 0 267 310" fill="none" xmlns="http://www.w3.org/2000/svg">
<g filter="url(#filter0_d_323_1284)">
<path d="M108.616 187.513C107.696 195.354 111.348 203.706 117.708 208.431C114.464 201.279 111.451 194.256 108.616 187.513ZM119.7 97.9708C113.979 88.0358 101.439 84.307 90.2268 88.7764C82.9224 91.688 78.7593 96.3873 76.6395 104.177C73.8046 114.521 76.6396 126.499 86.9833 132.833C88.3114 133.624 89.716 134.288 91.2228 134.748L90.0225 130.406C87.5452 121.314 85.0166 112.094 82.1306 102.67L109.254 99.2222C112.677 98.788 116.15 98.3539 119.649 97.9452L119.7 97.9708ZM174.356 133.675C172.593 139.243 170.652 144.76 168.609 150.251C172.925 146.037 174.79 139.933 174.356 133.675ZM174.356 133.675C172.593 139.243 170.652 144.76 168.609 150.251C172.925 146.037 174.79 139.933 174.356 133.675ZM119.7 97.9708C113.979 88.0358 101.439 84.307 90.2268 88.7764C82.9224 91.688 78.7593 96.3873 76.6395 104.177C73.8046 114.521 76.6396 126.499 86.9833 132.833C88.3114 133.624 89.716 134.288 91.2228 134.748L90.0225 130.406C87.5452 121.314 85.0166 112.094 82.1306 102.67L109.254 99.2222C112.677 98.788 116.15 98.3539 119.649 97.9452L119.7 97.9708ZM108.616 187.513C107.696 195.354 111.348 203.706 117.708 208.431C114.464 201.279 111.451 194.256 108.616 187.513ZM108.616 187.513C107.696 195.354 111.348 203.706 117.708 208.431C114.464 201.279 111.451 194.256 108.616 187.513ZM119.7 97.9708C113.979 88.0358 101.439 84.307 90.2268 88.7764C82.9224 91.688 78.7593 96.3873 76.6395 104.177C73.8046 114.521 76.6396 126.499 86.9833 132.833C88.3114 133.624 89.716 134.288 91.2228 134.748L90.0225 130.406C87.5452 121.314 85.0166 112.094 82.1306 102.67L109.254 99.2222C112.677 98.788 116.15 98.3539 119.649 97.9452L119.7 97.9708ZM174.356 133.675C172.593 139.243 170.652 144.76 168.609 150.251C172.925 146.037 174.79 139.933 174.356 133.675ZM174.356 133.675C172.593 139.243 170.652 144.76 168.609 150.251C172.925 146.037 174.79 139.933 174.356 133.675ZM119.7 97.9708C113.979 88.0358 101.439 84.307 90.2268 88.7764C82.9224 91.688 78.7593 96.3873 76.6395 104.177C73.8046 114.521 76.6396 126.499 86.9833 132.833C88.3114 133.624 89.716 134.288 91.2228 134.748L90.0225 130.406C87.5452 121.314 85.0166 112.094 82.1306 102.67L109.254 99.2222C112.677 98.788 116.15 98.3539 119.649 97.9452L119.7 97.9708ZM108.616 187.513C107.696 195.354 111.348 203.706 117.708 208.431C114.464 201.279 111.451 194.256 108.616 187.513ZM108.616 187.513C107.696 195.354 111.348 203.706 117.708 208.431C114.464 201.279 111.451 194.256 108.616 187.513ZM119.7 97.9708C113.979 88.0358 101.439 84.307 90.2268 88.7764C82.9224 91.688 78.7593 96.3873 76.6395 104.177C73.8046 114.521 76.6396 126.499 86.9833 132.833C88.3114 133.624 89.716 134.288 91.2228 134.748L90.0225 130.406C87.5452 121.314 85.0166 112.094 82.1306 102.67L109.254 99.2222C112.677 98.788 116.15 98.3539 119.649 97.9452L119.7 97.9708ZM174.356 133.675C172.593 139.243 170.652 144.76 168.609 150.251C172.925 146.037 174.79 139.933 174.356 133.675ZM174.356 133.675C172.593 139.243 170.652 144.76 168.609 150.251C172.925 146.037 174.79 139.933 174.356 133.675ZM119.7 97.9708C113.979 88.0358 101.439 84.307 90.2268 88.7764C82.9224 91.688 78.7593 96.3873 76.6395 104.177C73.8046 114.521 76.6396 126.499 86.9833 132.833C88.3114 133.624 89.716 134.288 91.2228 134.748L90.0225 130.406C87.5452 121.314 85.0166 112.094 82.1306 102.67L109.254 99.2222C112.677 98.788 116.15 98.3539 119.649 97.9452L119.7 97.9708ZM108.616 187.513C107.696 195.354 111.348 203.706 117.708 208.431C114.464 201.279 111.451 194.256 108.616 187.513ZM108.616 187.513C107.696 195.354 111.348 203.706 117.708 208.431C114.464 201.279 111.451 194.256 108.616 187.513ZM119.7 97.9708C113.979 88.0358 101.439 84.307 90.2268 88.7764C82.9224 91.688 78.7593 96.3873 76.6395 104.177C73.8046 114.521 76.6396 126.499 86.9833 132.833C88.3114 133.624 89.716 134.288 91.2228 134.748L90.0225 130.406C87.5452 121.314 85.0166 112.094 82.1306 102.67L109.254 99.2222C112.677 98.788 116.15 98.3539 119.649 97.9452L119.7 97.9708ZM174.356 133.675C172.593 139.243 170.652 144.76 168.609 150.251C172.925 146.037 174.79 139.933 174.356 133.675ZM174.356 133.675C172.593 139.243 170.652 144.76 168.609 150.251C172.925 146.037 174.79 139.933 174.356 133.675ZM119.7 97.9708C113.979 88.0358 101.439 84.307 90.2268 88.7764C82.9224 91.688 78.7593 96.3873 76.6395 104.177C73.8046 114.521 76.6396 126.499 86.9833 132.833C88.3114 133.624 89.716 134.288 91.2228 134.748L90.0225 130.406C87.5452 121.314 85.0166 112.094 82.1306 102.67L109.254 99.2222C112.677 98.788 116.15 98.3539 119.649 97.9452L119.7 97.9708ZM108.616 187.513C107.696 195.354 111.348 203.706 117.708 208.431C114.464 201.279 111.451 194.256 108.616 187.513ZM108.616 187.513C107.696 195.354 111.348 203.706 117.708 208.431C114.464 201.279 111.451 194.256 108.616 187.513ZM119.7 97.9708C113.979 88.0358 101.439 84.307 90.2268 88.7764C82.9224 91.688 78.7593 96.3873 76.6395 104.177C73.8046 114.521 76.6396 126.499 86.9833 132.833C88.3114 133.624 89.716 134.288 91.2228 134.748L90.0225 130.406C87.5452 121.314 85.0166 112.094 82.1306 102.67L109.254 99.2222C112.677 98.788 116.15 98.3539 119.649 97.9452L119.7 97.9708ZM174.356 133.675C172.593 139.243 170.652 144.76 168.609 150.251C172.925 146.037 174.79 139.933 174.356 133.675ZM174.356 133.675C172.593 139.243 170.652 144.76 168.609 150.251C172.925 146.037 174.79 139.933 174.356 133.675ZM90.2268 88.802C82.9224 91.7135 78.7593 96.4128 76.6395 104.202C73.8046 114.546 76.6396 126.524 86.9833 132.858C88.3114 133.65 89.716 134.314 91.2228 134.774L90.0225 130.432C87.5452 121.34 85.0166 112.12 82.1306 102.696L109.254 99.2478C112.677 98.8136 116.15 98.3794 119.649 97.9708C113.928 88.0358 101.388 84.307 90.1758 88.7764L90.2268 88.802ZM117.708 208.431C114.464 201.279 111.451 194.256 108.616 187.513C107.696 195.354 111.348 203.706 117.708 208.431ZM250.005 17.9545C242.828 10.7012 231.719 5.87415 215.015 2.78383C203.395 0.638487 192.566 0.0255398 187.994 0C185.874 0 183.805 0 181.788 0C151.063 0 127.26 1.30253 94.0068 4.75041C77.2525 6.48712 33.9877 14.5832 14.5007 27.251C1.5008 35.7302 -3.454 53.0462 2.49683 69.3917L3.23751 71.4093C5.66381 78.1519 8.42212 85.7627 12.483 93.0416C16.6716 100.601 23.0821 104.203 29.084 105.939L31.8934 115.568C31.9445 115.772 32.0211 115.976 32.0977 116.206L58.0975 195.712C67.1387 223.346 87.4685 263.367 103.38 284.948C111.374 295.751 120.568 301.217 130.657 301.217C130.887 301.217 131.295 301.217 131.525 301.217C154 300.476 165.11 282.675 169.299 275.983C177.574 262.754 183.014 250.137 188.76 236.754L189.399 235.298C191.314 230.855 193.281 226.513 195.196 222.171C200.483 210.372 205.974 198.164 210.367 184.832L225.589 138.528C227.377 133.114 229.241 127.75 231.08 122.412C234.324 113.014 237.618 103.385 240.606 93.4247C251.435 87.9336 258.638 76.9259 258.663 63.9006V38.6417C258.74 31.0309 255.675 23.6754 250.031 17.98L250.005 17.9545ZM195.375 136.536C192.821 144.939 189.91 153.162 186.768 161.31C180.485 177.502 173.283 193.311 166.081 209.35L151.114 242.552C148.049 249.32 135.688 273.251 125.779 262.779C119.419 256.062 114.03 248.528 109.663 240.049C106.445 233.741 103.38 227.458 100.468 221.124C95.9223 211.291 91.7081 201.407 87.5706 191.344C86.2681 188.177 84.9656 185.011 83.6886 181.793C79.6788 170.632 76.4607 159.752 73.447 148.999C68.4156 131.045 63.9717 113.346 57.6633 94.906C59.068 90.8962 60.958 87.2951 63.2566 84.0771L106.675 78.5605C113.8 77.6411 120.9 76.7727 127.975 76.0065C151.216 73.4781 174.228 72.1245 197.801 74.4486H211.899L198.517 125.605C197.546 129.308 196.499 132.96 195.401 136.613L195.375 136.536ZM168.609 150.251C172.925 146.037 174.79 139.933 174.356 133.675C172.593 139.243 170.652 144.76 168.609 150.251ZM90.2268 88.802C82.9224 91.7135 78.7593 96.4128 76.6395 104.202C73.8046 114.546 76.6396 126.524 86.9833 132.858C88.3114 133.65 89.716 134.314 91.2228 134.774L90.0225 130.432C87.5452 121.34 85.0166 112.12 82.1306 102.696L109.254 99.2478C112.677 98.8136 116.15 98.3794 119.649 97.9708C113.928 88.0358 101.388 84.307 90.1758 88.7764L90.2268 88.802ZM117.708 208.431C114.464 201.279 111.451 194.256 108.616 187.513C107.696 195.354 111.348 203.706 117.708 208.431ZM108.616 187.513C107.696 195.354 111.348 203.706 117.708 208.431C114.464 201.279 111.451 194.256 108.616 187.513ZM119.7 97.9708C113.979 88.0358 101.439 84.307 90.2268 88.7764C82.9224 91.688 78.7593 96.3873 76.6395 104.177C73.8046 114.521 76.6396 126.499 86.9833 132.833C88.3114 133.624 89.716 134.288 91.2228 134.748L90.0225 130.406C87.5452 121.314 85.0166 112.094 82.1306 102.67L109.254 99.2222C112.677 98.788 116.15 98.3539 119.649 97.9452L119.7 97.9708ZM174.356 133.675C172.593 139.243 170.652 144.76 168.609 150.251C172.925 146.037 174.79 139.933 174.356 133.675ZM174.356 133.675C172.593 139.243 170.652 144.76 168.609 150.251C172.925 146.037 174.79 139.933 174.356 133.675ZM119.7 97.9708C113.979 88.0358 101.439 84.307 90.2268 88.7764C82.9224 91.688 78.7593 96.3873 76.6395 104.177C73.8046 114.521 76.6396 126.499 86.9833 132.833C88.3114 133.624 89.716 134.288 91.2228 134.748L90.0225 130.406C87.5452 121.314 85.0166 112.094 82.1306 102.67L109.254 99.2222C112.677 98.788 116.15 98.3539 119.649 97.9452L119.7 97.9708ZM108.616 187.513C107.696 195.354 111.348 203.706 117.708 208.431C114.464 201.279 111.451 194.256 108.616 187.513ZM108.616 187.513C107.696 195.354 111.348 203.706 117.708 208.431C114.464 201.279 111.451 194.256 108.616 187.513ZM119.7 97.9708C113.979 88.0358 101.439 84.307 90.2268 88.7764C82.9224 91.688 78.7593 96.3873 76.6395 104.177C73.8046 114.521 76.6396 126.499 86.9833 132.833C88.3114 133.624 89.716 134.288 91.2228 134.748L90.0225 130.406C87.5452 121.314 85.0166 112.094 82.1306 102.67L109.254 99.2222C112.677 98.788 116.15 98.3539 119.649 97.9452L119.7 97.9708ZM174.356 133.675C172.593 139.243 170.652 144.76 168.609 150.251C172.925 146.037 174.79 139.933 174.356 133.675ZM174.356 133.675C172.593 139.243 170.652 144.76 168.609 150.251C172.925 146.037 174.79 139.933 174.356 133.675ZM119.7 97.9708C113.979 88.0358 101.439 84.307 90.2268 88.7764C82.9224 91.688 78.7593 96.3873 76.6395 104.177C73.8046 114.521 76.6396 126.499 86.9833 132.833C88.3114 133.624 89.716 134.288 91.2228 134.748L90.0225 130.406C87.5452 121.314 85.0166 112.094 82.1306 102.67L109.254 99.2222C112.677 98.788 116.15 98.3539 119.649 97.9452L119.7 97.9708ZM108.616 187.513C107.696 195.354 111.348 203.706 117.708 208.431C114.464 201.279 111.451 194.256 108.616 187.513ZM108.616 187.513C107.696 195.354 111.348 203.706 117.708 208.431C114.464 201.279 111.451 194.256 108.616 187.513ZM119.7 97.9708C113.979 88.0358 101.439 84.307 90.2268 88.7764C82.9224 91.688 78.7593 96.3873 76.6395 104.177C73.8046 114.521 76.6396 126.499 86.9833 132.833C88.3114 133.624 89.716 134.288 91.2228 134.748L90.0225 130.406C87.5452 121.314 85.0166 112.094 82.1306 102.67L109.254 99.2222C112.677 98.788 116.15 98.3539 119.649 97.9452L119.7 97.9708ZM174.356 133.675C172.593 139.243 170.652 144.76 168.609 150.251C172.925 146.037 174.79 139.933 174.356 133.675ZM174.356 133.675C172.593 139.243 170.652 144.76 168.609 150.251C172.925 146.037 174.79 139.933 174.356 133.675ZM119.7 97.9708C113.979 88.0358 101.439 84.307 90.2268 88.7764C82.9224 91.688 78.7593 96.3873 76.6395 104.177C73.8046 114.521 76.6396 126.499 86.9833 132.833C88.3114 133.624 89.716 134.288 91.2228 134.748L90.0225 130.406C87.5452 121.314 85.0166 112.094 82.1306 102.67L109.254 99.2222C112.677 98.788 116.15 98.3539 119.649 97.9452L119.7 97.9708ZM108.616 187.513C107.696 195.354 111.348 203.706 117.708 208.431C114.464 201.279 111.451 194.256 108.616 187.513ZM108.616 187.513C107.696 195.354 111.348 203.706 117.708 208.431C114.464 201.279 111.451 194.256 108.616 187.513ZM119.7 97.9708C113.979 88.0358 101.439 84.307 90.2268 88.7764C82.9224 91.688 78.7593 96.3873 76.6395 104.177C73.8046 114.521 76.6396 126.499 86.9833 132.833C88.3114 133.624 89.716 134.288 91.2228 134.748L90.0225 130.406C87.5452 121.314 85.0166 112.094 82.1306 102.67L109.254 99.2222C112.677 98.788 116.15 98.3539 119.649 97.9452L119.7 97.9708ZM174.356 133.675C172.593 139.243 170.652 144.76 168.609 150.251C172.925 146.037 174.79 139.933 174.356 133.675ZM174.356 133.675C172.593 139.243 170.652 144.76 168.609 150.251C172.925 146.037 174.79 139.933 174.356 133.675ZM119.7 97.9708C113.979 88.0358 101.439 84.307 90.2268 88.7764C82.9224 91.688 78.7593 96.3873 76.6395 104.177C73.8046 114.521 76.6396 126.499 86.9833 132.833C88.3114 133.624 89.716 134.288 91.2228 134.748L90.0225 130.406C87.5452 121.314 85.0166 112.094 82.1306 102.67L109.254 99.2222C112.677 98.788 116.15 98.3539 119.649 97.9452L119.7 97.9708ZM108.616 187.513C107.696 195.354 111.348 203.706 117.708 208.431C114.464 201.279 111.451 194.256 108.616 187.513ZM119.7 97.9708C113.979 88.0358 101.439 84.307 90.2268 88.7764C82.9224 91.688 78.7593 96.3873 76.6395 104.177C73.8046 114.521 76.6396 126.499 86.9833 132.833C88.3114 133.624 89.716 134.288 91.2228 134.748L90.0225 130.406C87.5452 121.314 85.0166 112.094 82.1306 102.67L109.254 99.2222C112.677 98.788 116.15 98.3539 119.649 97.9452L119.7 97.9708ZM174.356 133.675C172.593 139.243 170.652 144.76 168.609 150.251C172.925 146.037 174.79 139.933 174.356 133.675ZM174.356 133.675C172.593 139.243 170.652 144.76 168.609 150.251C172.925 146.037 174.79 139.933 174.356 133.675ZM119.7 97.9708C113.979 88.0358 101.439 84.307 90.2268 88.7764C82.9224 91.688 78.7593 96.3873 76.6395 104.177C73.8046 114.521 76.6396 126.499 86.9833 132.833C88.3114 133.624 89.716 134.288 91.2228 134.748L90.0225 130.406C87.5452 121.314 85.0166 112.094 82.1306 102.67L109.254 99.2222C112.677 98.788 116.15 98.3539 119.649 97.9452L119.7 97.9708Z" fill="white"/>
</g>
<path d="M197.776 74.3718C174.228 72.0732 151.216 73.4013 127.975 75.9298C123.914 72.5585 119.24 69.979 114.107 68.2678C109.663 66.761 104.861 65.9692 99.8809 65.9692C93.9301 65.9692 88.0559 67.1185 82.4626 69.3405C78.9381 70.7452 75.7711 72.4563 72.9107 74.4995C69.1307 77.1301 65.9127 80.3226 63.2565 84.0259C60.9579 87.2439 59.068 90.845 57.6633 94.8548C57.178 96.1062 56.7949 97.3832 56.4373 98.7113C54.4452 106.067 54.1898 113.422 55.4668 120.369C56.2074 124.558 57.5356 128.567 59.3745 132.322C62.567 138.86 67.3429 144.606 73.4725 148.974C76.4863 159.752 79.7043 170.631 83.7141 181.767C84.9911 184.959 86.2936 188.152 87.5962 191.319C87.8771 199.466 90.4567 207.664 95.1816 214.662C96.7395 217.012 98.5273 219.132 100.468 221.073C103.38 227.432 106.419 233.74 109.663 240.023C114.005 248.528 119.419 256.037 125.779 262.754C135.688 273.225 148.049 249.269 151.114 242.526L166.081 209.324C173.309 193.311 180.485 177.476 186.768 161.284C192.157 154.414 195.196 145.756 195.375 136.51C196.473 132.858 197.52 129.206 198.491 125.503L211.874 74.3463H197.776V74.3718Z" fill="white"/>
<path d="M187.866 20.9425C154 20.7638 129.661 22.0663 96.1521 25.5652C78.5039 27.3786 40.3216 35.3981 25.917 44.7967C20.2982 48.4489 20.0428 56.3918 22.1626 62.2404C24.7422 69.2894 27.194 76.4406 30.7696 82.9022C33.2725 87.4483 41.1389 86.4267 45.2763 86.7587L51.9934 109.719L55.4923 120.42L59.4 132.373L78.0187 189.225C85.9361 213.436 105.142 252.104 120.236 272.51C122.509 275.575 126.57 280.453 130.861 280.325C141.409 279.968 147.079 272.152 151.599 264.899C159.313 252.589 164.523 240.253 170.193 227.049C177.267 210.652 184.904 195.303 190.497 178.319L205.744 132.015C211.925 113.192 218.77 95.3656 223.724 76.1852C231.259 76.7982 237.72 71.4603 237.746 63.9005V38.514C237.874 24.5181 197.801 21.0191 187.892 20.9681L187.866 20.9425ZM198.491 125.528C197.52 129.231 196.473 132.884 195.375 136.536C192.821 144.938 189.909 153.162 186.768 161.309C180.485 177.502 173.283 193.311 166.081 209.35L151.114 242.552C148.049 249.32 135.688 273.251 125.779 262.779C119.419 256.062 114.03 248.528 109.663 240.049C106.445 233.74 103.38 227.458 100.468 221.124C95.9222 211.291 91.7081 201.407 87.5706 191.344C86.2681 188.177 84.9656 185.01 83.6886 181.792C79.6788 170.632 76.4607 159.752 73.447 148.999C68.4156 131.045 63.9716 113.346 57.6633 94.9059C56.565 91.7134 55.4157 88.4954 54.1898 85.2263L63.2565 84.077L106.675 78.5604C113.8 77.641 120.9 76.7726 127.975 76.0064C151.216 73.478 174.228 72.1244 197.801 74.4485H211.899L198.516 125.605L198.491 125.528ZM230.161 59.9163C229.445 65.6372 222.856 67.0419 218.361 66.5822C197.572 64.6156 177.676 63.3897 156.759 64.4369C142.354 65.1775 128.23 66.5056 114.081 68.2934C100.443 70.0045 86.8299 72.1499 72.8851 74.4996C72.4765 74.5507 72.0679 74.6528 71.6592 74.7039C62.899 76.1852 43.5141 79.301 36.797 76.7471C33.8088 68.5998 22.9033 51.6925 35.6478 47.5295C59.2978 39.791 83.3565 35.2704 108.411 33.406L136.684 31.3117L156.095 29.1919C170.269 27.6595 210.52 28.8343 224.337 34.0189C232.408 37.0582 231.029 52.7141 230.135 59.8653L230.161 59.9163Z" fill="#860909"/>
<path d="M112.038 131.632C110.71 132.628 109.331 133.445 107.798 134.135C102.946 136.383 96.663 136.587 91.2485 134.774C89.7416 134.288 88.3114 133.65 87.0088 132.858C76.6651 126.524 73.8302 114.546 76.6651 104.202C78.785 96.4127 82.948 91.7134 90.2525 88.8018C101.465 84.3324 114.03 88.0612 119.726 97.9962C120.926 100.065 121.794 102.415 122.331 105.02C122.331 105.096 122.382 105.198 122.382 105.275C124.297 115.236 120.236 125.758 112.089 131.658L112.038 131.632Z" fill="#860909"/>
<path d="M168.609 150.251C166.847 151.962 164.702 153.392 162.096 154.363C157.295 156.176 152.34 156.048 147.896 154.49C146.338 153.954 144.78 153.213 143.376 152.294C143.376 152.294 143.376 152.294 143.325 152.294C139.519 149.893 136.403 146.317 134.539 142.001C134.181 141.184 133.9 140.367 133.67 139.524C131.065 130.227 135.075 119.271 143.554 114.239C144.116 113.882 144.704 113.575 145.317 113.295C151.242 110.562 157.091 110.128 163.118 113.192C167.613 115.465 170.627 120.088 172.849 126.345C173.717 128.746 174.202 131.223 174.356 133.675C174.764 139.933 172.9 146.011 168.609 150.251Z" fill="#860909"/>
<path d="M143.631 205.289C139.519 210.627 133.696 212.976 127.183 212.261C123.633 211.878 120.415 210.474 117.682 208.456C111.348 203.706 107.671 195.354 108.59 187.513C108.718 186.492 108.922 185.47 109.203 184.474C110.659 179.417 114.95 173.39 121.054 171.295C125.472 169.763 129.839 169.789 133.773 171.015C135.637 171.602 137.399 172.47 139.034 173.569C141.409 175.152 143.478 177.272 145.138 179.775C150.118 187.207 149.735 197.295 143.58 205.289H143.631Z" fill="#860909"/>
<path d="M116.533 46.9933C116.099 47.5296 113.698 46.2527 113.724 45.5375C113.775 44.567 114.209 41.9109 114.924 42.1407L117.989 43.1368C118.857 43.4177 117.427 45.8695 116.533 46.9933Z" fill="#860909"/>
<path d="M48.3922 63.6197C48.5199 63.1089 51.1505 63.8751 51.0484 64.3604L50.4354 66.8122C50.2566 67.4762 47.5749 66.8122 47.7537 66.1482L48.3922 63.5942V63.6197Z" fill="#860909"/>
<path d="M171.24 35.4492C171.214 34.9384 173.589 35.0917 173.973 35.4492C174.483 35.9089 174.356 37.1093 173.998 37.7478C173.64 38.3863 171.955 39.2547 171.751 38.5907C171.546 37.9266 171.265 36.1644 171.24 35.4748V35.4492Z" fill="#860909"/>
<path d="M144.831 39.9952C145.01 39.3822 147.947 39.1524 147.768 39.7398L146.926 42.3193C146.568 43.4431 144.499 41.0679 144.831 39.9952Z" fill="#860909"/>
<path d="M103.584 57.4901C103.686 57.0559 106.138 56.8005 106.164 57.2347L106.266 59.7886C106.292 60.4527 104.631 60.5549 103.993 60.325C103.354 60.0951 103.431 58.2307 103.584 57.4901Z" fill="#860909"/>
<path d="M74.8517 61.6787C74.8006 61.2956 76.5628 61.2445 76.665 61.6021L77.2269 63.6197C77.3801 64.1561 75.2092 64.6413 75.1326 64.0795L74.8517 61.7042V61.6787Z" fill="#860909"/>
<path d="M90.6355 45.4608C90.9675 45.3331 92.551 45.5885 92.4488 45.9205L91.8103 48.0147C91.6571 48.5511 90.2779 47.8104 89.8438 47.5039C89.4096 47.1975 90.1503 45.6395 90.6611 45.4608H90.6355Z" fill="#860909"/>
<path d="M186.085 51.2264C186.468 51.2264 188.46 51.0987 188.945 51.0476C189.584 50.971 188.766 52.4267 188.332 52.8354L186.391 54.5721C185.957 54.9552 185.497 51.2519 186.085 51.2519V51.2264Z" fill="#860909"/>
<defs>
<filter id="filter0_d_323_1284" x="0" y="0" width="266.665" height="309.217" filterUnits="userSpaceOnUse" color-interpolation-filters="sRGB">
<feFlood flood-opacity="0" result="BackgroundImageFix"/>
<feColorMatrix in="SourceAlpha" type="matrix" values="0 0 0 0 0 0 0 0 0 0 0 0 0 0 0 0 0 0 127 0" result="hardAlpha"/>
<feOffset dx="8" dy="8"/>
<feColorMatrix type="matrix" values="0 0 0 0 0 0 0 0 0 0 0 0 0 0 0 0 0 0 1 0"/>
<feBlend mode="normal" in2="BackgroundImageFix" result="effect1_dropShadow_323_1284"/>
<feBlend mode="normal" in="SourceGraphic" in2="effect1_dropShadow_323_1284" result="shape"/>
</filter>
</defs>
</svg>
