<svg width="15" height="16" viewBox="0 0 15 16" fill="none" xmlns="http://www.w3.org/2000/svg">
<g filter="url(#filter0_d_598_1043)">
<path d="M5.90379 14.9985C5.34179 14.9985 4.81613 14.7803 4.42076 14.3819C3.74211 13.6987 3.60123 12.6793 3.57699 11.6689L2.54387 11.8931C2.45752 11.9112 2.36966 11.9233 2.28028 11.9264C2.2621 11.9264 2.21514 11.9264 2.21514 11.9264C1.12294 11.9264 0.439744 11.0978 0.183736 9.46324C0.071637 8.7452 0.0307362 7.94536 0.0110433 7.56059L0.00346857 7.41971C-0.0525807 6.46233 0.576081 5.561 1.49559 5.27621C2.04245 5.10654 2.60143 4.949 3.22555 4.78691L3.17404 4.10675C3.11345 3.30994 2.95439 1.19218 4.84491 0.59079C5.76442 0.298425 6.8233 0 7.711 0C8.29573 0 8.76988 0.128762 9.16071 0.392346C9.82118 0.839225 10.0863 1.68299 10.053 2.27681L9.96509 3.84013L10.9361 3.6432C11.0906 3.61139 11.2482 3.59624 11.4057 3.59624C12.607 3.59624 13.6007 4.52181 13.6689 5.70188C13.7189 6.58352 13.7265 7.39396 13.728 8.14836C13.7325 9.47536 13.0599 10.4812 12.0162 10.71C11.5148 10.8205 11.0421 10.8751 10.5847 10.922L10.5922 12.143C10.5983 13.1292 10.0863 14.3092 8.9456 14.5713C8.29725 14.7198 7.68525 14.7925 7.09294 14.8637C6.79755 14.8985 6.51882 14.9318 6.2416 14.9742C6.12799 14.9909 6.01286 15 5.90076 15L5.90379 14.9985Z" fill="white"/>
</g>
<path d="M8.68283 12.9923C7.81027 13.1923 6.9559 13.2423 6.09244 13.3726C4.76846 13.5725 5.31381 10.3792 5.11233 9.70209L2.29775 10.3111C1.70393 10.3338 1.62062 7.7646 1.59032 7.23138C1.57517 6.98143 1.76604 6.70118 2.01751 6.62241C2.98701 6.32247 3.92015 6.08313 4.90632 5.84984L4.75938 3.89266C4.70636 3.18977 4.6397 2.16876 5.37895 1.93396C6.11819 1.69916 7.82391 1.16594 8.38743 1.54616C8.51165 1.62948 8.62678 1.90215 8.61617 2.08999L8.4859 4.40468C8.46317 4.80914 8.47226 5.22421 8.48286 5.59838L11.3111 5.02576C11.7731 4.93184 12.2048 5.2333 12.2306 5.68775C12.276 6.49213 12.2851 7.21926 12.2882 8.05091C12.2882 8.38115 12.1806 9.03708 11.7671 9.12797C10.8945 9.32035 10.0432 9.32338 9.15849 9.47183C9.13425 9.84903 9.14182 10.1596 9.14334 10.5095L9.15243 12.0486C9.15394 12.3122 9.02973 12.9105 8.68283 12.9908V12.9923Z" fill="#860909"/>
<defs>
<filter id="filter0_d_598_1043" x="0" y="0" width="14.228" height="15.5" filterUnits="userSpaceOnUse" color-interpolation-filters="sRGB">
<feFlood flood-opacity="0" result="BackgroundImageFix"/>
<feColorMatrix in="SourceAlpha" type="matrix" values="0 0 0 0 0 0 0 0 0 0 0 0 0 0 0 0 0 0 127 0" result="hardAlpha"/>
<feOffset dx="0.5" dy="0.5"/>
<feComposite in2="hardAlpha" operator="out"/>
<feColorMatrix type="matrix" values="0 0 0 0 0 0 0 0 0 0 0 0 0 0 0 0 0 0 1 0"/>
<feBlend mode="normal" in2="BackgroundImageFix" result="effect1_dropShadow_598_1043"/>
<feBlend mode="normal" in="SourceGraphic" in2="effect1_dropShadow_598_1043" result="shape"/>
</filter>
</defs>
</svg>
