<svg width="38" height="40" viewBox="0 0 38 40" fill="none" xmlns="http://www.w3.org/2000/svg">
<g filter="url(#filter0_d_331_1266)">
<path d="M34.1039 29.7219C31.1461 33.6265 27.1423 36.2731 22.5254 37.3823C20.8255 37.7926 19.1032 38 17.4169 38C12.6872 38 8.17391 36.3904 4.35497 33.3424C3.25934 32.4722 2.24486 31.4893 1.33409 30.4298C0.301578 29.2304 -0.167333 27.6343 0.0535968 26.0608C0.270018 24.4872 1.15825 23.0804 2.48383 22.2057C3.40362 21.5971 4.6751 20.781 6.02773 19.9874C6.97457 19.4328 7.2947 18.238 6.80324 17.2596C6.80324 17.2551 6.79873 17.2461 6.79422 17.2416C5.07187 13.8059 5.00424 10.041 6.60485 6.64594C8.48051 2.6737 12.9171 0 17.6423 0C20.4017 0 22.9357 0.888231 24.9646 2.5655C27.6518 4.77931 29.1217 8.16991 29 11.8626C28.9414 13.603 28.5356 15.2893 27.8322 16.8178C27.3903 17.7871 27.7736 18.9234 28.6979 19.4509C30.0189 20.2038 31.4302 21.1146 32.9316 22.1697C34.0994 22.9948 34.8929 24.2753 35.1139 25.691C35.3348 27.1068 34.9651 28.5766 34.0994 29.7219H34.1039Z" fill="white"/>
</g>
<path d="M21.0465 21.2227C17.9895 20.4653 15.1445 20.7764 12.3626 21.872C10.3562 22.5213 6.68601 24.8343 4.96816 25.966C4.45416 26.3086 4.35046 27.0255 4.75174 27.4945C5.47315 28.3331 6.27571 29.1131 7.16394 29.821C11.1903 33.0357 16.186 34.2712 21.4703 33.0042C25.2306 32.1024 28.3146 29.8976 30.5059 27.003C30.7809 26.6378 30.7043 26.1193 30.3346 25.8578C28.6032 24.6359 23.8554 21.4617 21.0465 21.2227Z" fill="#860909"/>
<path d="M21.2674 17.9946C17.5882 20.6458 12.7819 19.1263 10.8251 15.2262C9.76099 13.1026 9.62121 10.8301 10.6808 8.57574C12.5158 4.68467 18.499 3.07955 22.0925 6.04632C25.695 9.02212 25.0999 15.2307 21.2629 17.9946H21.2674Z" fill="#860909"/>
<defs>
<filter id="filter0_d_331_1266" x="0" y="0" width="37.1765" height="40" filterUnits="userSpaceOnUse" color-interpolation-filters="sRGB">
<feFlood flood-opacity="0" result="BackgroundImageFix"/>
<feColorMatrix in="SourceAlpha" type="matrix" values="0 0 0 0 0 0 0 0 0 0 0 0 0 0 0 0 0 0 127 0" result="hardAlpha"/>
<feOffset dx="2" dy="2"/>
<feColorMatrix type="matrix" values="0 0 0 0 0 0 0 0 0 0 0 0 0 0 0 0 0 0 1 0"/>
<feBlend mode="normal" in2="BackgroundImageFix" result="effect1_dropShadow_331_1266"/>
<feBlend mode="normal" in="SourceGraphic" in2="effect1_dropShadow_331_1266" result="shape"/>
</filter>
</defs>
</svg>
