<svg width="33" height="36" viewBox="0 0 33 36" fill="none" xmlns="http://www.w3.org/2000/svg">
<g opacity="0.9">
<path d="M31.9938 27.8829C29.219 31.5459 25.463 34.0288 21.1316 35.0693C19.537 35.4542 17.9212 35.6488 16.3393 35.6488C11.9022 35.6488 7.66816 34.1388 4.08551 31.2794C3.05767 30.4631 2.10597 29.541 1.25154 28.547C0.282918 27.4218 -0.15698 25.9245 0.0502806 24.4483C0.253311 22.9721 1.08658 21.6524 2.33015 20.8318C3.19303 20.2608 4.38583 19.4952 5.65477 18.7507C6.54303 18.2305 6.84335 17.1096 6.3823 16.1917C6.3823 16.1875 6.37807 16.179 6.37384 16.1748C4.75805 12.9517 4.69461 9.41978 6.19619 6.23473C7.95579 2.50827 12.1179 0 16.5508 0C19.1394 0 21.5166 0.833273 23.42 2.40676C25.9409 4.4836 27.3199 7.66441 27.2056 11.1286C27.1507 12.7613 26.77 14.3433 26.1101 15.7772C25.6956 16.6866 26.0551 17.7525 26.9222 18.2474C28.1616 18.9538 29.4855 19.8082 30.894 20.798C31.9896 21.572 32.734 22.7733 32.9413 24.1014C33.1485 25.4296 32.8017 26.8085 31.9896 27.8829H31.9938Z" fill="white"/>
<path d="M19.7443 19.9096C16.8765 19.199 14.2075 19.4909 11.5977 20.5187C9.7154 21.1278 6.27233 23.2977 4.66077 24.3594C4.17858 24.6808 4.08129 25.3534 4.45775 25.7933C5.13452 26.58 5.88742 27.3118 6.7207 27.9759C10.4979 30.9917 15.1845 32.1507 20.1419 30.9621C23.6695 30.1162 26.5627 28.0478 28.6184 25.3322C28.8764 24.9896 28.8045 24.5032 28.4577 24.2579C26.8334 23.1116 22.3794 20.1338 19.7443 19.9096Z" fill="#860909"/>
<path d="M19.9515 16.8811C16.5 19.3683 11.991 17.9428 10.1553 14.284C9.15705 12.2918 9.02593 10.16 10.0199 8.04507C11.7415 4.39474 17.3544 2.88894 20.7256 5.67215C24.1052 8.46382 23.5469 14.2883 19.9473 16.8811H19.9515Z" fill="#860909"/>
</g>
</svg>
