<svg width="32" height="35" viewBox="0 0 32 35" fill="none" xmlns="http://www.w3.org/2000/svg">
<g opacity="0.9">
<path d="M31.7693 27.296C31.4868 30.0288 30.078 32.1441 27.8053 33.2542C26.2028 34.0332 24.4872 34.1624 23.1107 34.2633C22.8886 34.2835 22.6666 34.2996 22.4446 34.3158C20.5797 34.4813 18.6259 34.562 16.4703 34.562C15.6791 34.562 14.8799 34.554 14.0725 34.5338L7.69459 34.3925C3.39553 34.2956 -0.0558292 30.7312 0.000684241 26.4483L0.129858 16.4656L0.271142 8.99776C0.319582 6.30933 1.93829 4.04879 4.27149 3.05173C4.77607 1.83669 5.6924 0.787156 7.31111 0.306791C7.70266 0.189728 8.11037 0.133217 8.52211 0.133217C9.36174 0.133217 10.1852 0.379456 10.9037 0.803307C11.5779 0.298722 12.4135 0 13.3217 0C14.23 0 15.118 0.266419 15.8608 0.754857H15.8648C16.4744 0.375409 17.1646 0.137253 17.8993 0.0565194C18.0446 0.0403727 18.2222 0.0323003 18.3635 0.0323003C19.1789 0.0323003 20.0024 0.266429 20.7411 0.70239C21.1448 0.456153 21.5686 0.274496 21.9925 0.165505C22.3397 0.080735 22.6949 0.0363286 23.0541 0.0363286C24.3257 0.0363286 25.6538 0.601472 26.5983 1.54605C26.8527 1.8044 27.0747 2.08292 27.2563 2.38164C28.6772 2.76512 29.8963 3.63301 30.6835 4.86823C31.7572 6.55556 31.8945 8.52547 31.8178 9.88179C31.6725 12.4854 31.6725 14.8671 31.8178 17.3819C31.9954 20.47 32.1367 23.776 31.7734 27.296H31.7693Z" fill="white"/>
<path d="M7.28282 8.45685C7.30704 9.07446 8.14264 9.40546 8.65933 9.41354C9.11144 9.42161 9.92685 9.05023 9.97529 8.47703C10.0399 7.71409 10.0116 7.27007 9.99951 6.39007L11.921 6.45466L12.0582 8.33574C12.0945 8.8161 12.5951 9.44987 12.9826 9.55078C13.4912 9.68803 14.2421 9.51849 14.4883 9.03813C14.9041 8.23079 14.9081 7.47189 14.791 6.54749L16.8417 6.46273C16.9547 7.43557 16.9951 8.1662 17.2978 8.88069C17.5723 9.52253 18.4281 9.46602 18.9165 9.26822C19.4857 9.04217 19.7683 8.40437 19.7239 7.75043L19.6351 6.45466L21.7261 6.51924C21.7584 7.50822 21.718 8.39225 22.3679 9.01794C22.8038 9.44179 23.922 9.2884 24.2772 8.77171C24.7253 8.11777 24.6123 7.29429 24.4306 6.47888C25.2864 6.05099 26.6508 6.05906 27.2765 7.04401C27.7246 7.74639 27.8335 8.79593 27.7851 9.66785C27.6358 12.3724 27.6317 14.9196 27.7851 17.6201C27.9627 20.7566 28.0757 23.772 27.7528 26.8883C27.4097 30.2145 24.6365 30.0813 22.0894 30.3074C19.4171 30.5455 16.8538 30.5698 14.1613 30.5092L7.78337 30.3679C5.73678 30.3235 4.00504 28.6604 4.0333 26.5129L4.16247 16.5302L4.29972 9.08253C4.32798 7.55263 5.63586 6.43851 7.20613 6.56365L7.27475 8.46896L7.28282 8.45685ZM25.2218 27.0821C25.5044 26.0769 25.5851 25.3221 25.6053 24.3896L25.7506 18.5728C25.7991 16.5948 25.9242 14.6612 25.6416 12.6146C19.0861 13.43 13.0997 12.2715 6.66925 12.8972C6.51586 14.6209 6.17274 16.1709 6.201 17.7896C6.2454 20.3166 6.2898 22.6417 6.03549 25.1687C5.9709 25.8146 6.21714 27.0256 6.99622 27.0135L13.7738 26.9246L25.2178 27.078L25.2218 27.0821Z" fill="#860909"/>
<path d="M13.2854 4.04063C14.8072 3.95586 14.4803 8.87254 13.463 8.84832C12.2278 8.82006 11.7959 4.12137 13.2854 4.04063Z" fill="#860909"/>
<path d="M19.1426 8.00871C19.1426 8.29936 18.6986 8.82009 18.4564 8.90486C18.1779 9.00174 17.536 8.50523 17.4997 8.19441C17.3584 7.07625 17.0032 4.21828 18.3353 4.07295C18.6259 4.04066 19.1911 4.4847 19.187 4.81167L19.1426 8.00871Z" fill="#860909"/>
<path d="M9.31329 4.8199C9.4788 5.86539 9.91476 8.83236 8.61898 8.85254C8.37275 8.85658 7.86816 8.46905 7.84394 8.2107C7.74302 7.16117 7.44027 4.48082 8.45752 4.17807C8.71586 4.10137 9.26889 4.52522 9.31733 4.8199H9.31329Z" fill="#860909"/>
<path d="M23.8615 7.99263C23.8615 8.35997 23.2479 8.83629 22.9774 8.78381C22.707 8.73134 22.2952 8.27923 22.2952 7.96437L22.3073 4.81979C22.3073 4.55337 22.7473 4.14567 22.9936 4.08109C23.2398 4.0165 23.8736 4.36365 23.8736 4.64622L23.8655 7.99263H23.8615Z" fill="#860909"/>
</g>
</svg>
