<svg width="23" height="22" viewBox="0 0 23 22" fill="none" xmlns="http://www.w3.org/2000/svg">
<g filter="url(#filter0_d_402_1401)">
<path d="M20.9481 9.05587C20.0128 11.8617 17.0195 16.0591 11.4202 19.4289C10.987 19.6906 10.3169 20 9.57963 20C9.43819 20 9.29851 19.9894 9.16414 19.9664C8.10862 19.7896 7.35721 18.9887 7.0814 18.6528C5.50961 16.7291 4.11463 14.9151 2.81513 13.1082C1.82326 11.7291 1.11428 10.4791 0.58387 9.17256C-0.542367 6.40205 -0.0331742 3.87376 2.05841 1.86351C3.30664 0.661246 4.89434 0 6.52447 0C6.69066 0 6.85862 0.00530691 7.02482 0.0194512C7.07609 0.0229872 7.1256 0.0300568 7.17687 0.038897C8.87949 0.325318 10.2992 1.30128 11.254 2.7599C12.458 1.73268 13.9679 1.17044 15.5202 1.17044C16.9789 1.17044 18.3544 1.65488 19.5018 2.57072C21.2593 3.97454 21.8127 6.45863 20.9481 9.05587Z" fill="white"/>
</g>
<path d="M6.34973 2C10.3497 2 10.8497 7.5 10.8497 7.5C10.8497 7.5 12.3497 2.91667 15.8497 3.5C19.3497 4.08333 19.3497 5 19.3497 6C19.3497 7 18.4088 10.2716 16.8497 12.5C14.7676 15.476 9.34973 18 9.34973 18C9.34973 18 1.82904 7.79655 1.84973 7C1.87042 6.20345 2.34973 2 6.34973 2Z" fill="#B0524F" stroke="#B0524F"/>
<path d="M6.90521 1.53247L6.91595 1.53345L6.9267 1.5354C9.08467 1.89874 10.3522 3.63286 10.83 5.60278C11.1868 5.00777 11.6136 4.47109 12.1484 3.99438L12.3212 3.84692C14.1312 2.36673 16.695 2.26864 18.5566 3.7561C20.0544 4.95329 20.0405 6.98501 19.5107 8.57642L19.454 8.74731H19.4462C18.7776 10.6253 17.4255 12.4488 15.8427 14.0461C14.2092 15.6946 12.3162 17.118 10.6367 18.1292C10.4753 18.2265 10.2761 18.3264 10.0693 18.3948C9.86659 18.4617 9.63328 18.5071 9.414 18.47V18.469C9.17647 18.4292 8.95091 18.3101 8.7597 18.1711C8.56618 18.0305 8.39249 17.8584 8.25775 17.6926C6.79146 15.8969 5.40542 14.1112 4.04779 12.2219C3.22496 11.0778 2.52229 9.90895 1.99115 8.60181C1.5596 7.54068 1.41546 6.53154 1.5976 5.57935C1.78007 4.62571 2.28559 3.75283 3.11224 2.95825C4.06862 2.03826 5.29283 1.48837 6.6347 1.5188L6.90521 1.53247ZM8.12396 3.51489C7.18355 2.79077 6.12736 2.79444 5.18744 3.20825C4.23823 3.62619 3.42554 4.45767 3.02338 5.34692C2.67114 6.12451 2.83195 7.12124 3.24603 8.1438C3.65604 9.15623 4.29127 10.1366 4.79877 10.844C6.25787 12.8776 7.78614 14.7948 9.3642 16.7405C9.39799 16.782 9.45092 16.8305 9.50482 16.8674C9.53115 16.8855 9.55406 16.8979 9.57123 16.9055C9.57397 16.9067 9.57602 16.9086 9.57806 16.9094C9.58248 16.9089 9.59094 16.9082 9.60345 16.9055C9.62714 16.9005 9.65669 16.8922 9.68939 16.8811C9.75754 16.858 9.82066 16.8293 9.85443 16.8088H9.85541C12.4063 15.2653 14.6648 13.3357 16.539 11.0188C17.1966 10.206 17.7333 9.40153 18.1279 8.46997C18.3633 7.91342 18.5445 7.19463 18.5361 6.51782C18.5275 5.83978 18.3305 5.24199 17.8554 4.86353L17.8203 4.83521C16.7581 4.00877 15.2992 3.79689 14.0878 4.38794C13.0525 4.894 12.2824 5.77767 11.7538 6.81079C11.7008 6.91454 11.4972 7.36265 11.2617 7.72485C11.1456 7.90321 11.0043 8.08953 10.8495 8.20532C10.7713 8.26384 10.6689 8.32 10.5488 8.33032C10.4166 8.34163 10.2947 8.29461 10.1982 8.20337C10.0809 8.09232 10.0039 7.94835 9.94916 7.80005C9.89425 7.65127 9.85569 7.48167 9.82318 7.30493C9.79066 7.12814 9.76202 6.93153 9.73138 6.73071C9.70039 6.52753 9.66677 6.31482 9.62201 6.09595C9.44358 5.22348 9.09717 4.26402 8.12396 3.51489Z" fill="#B0524F" stroke="#B0524F" stroke-width="0.5"/>
<defs>
<filter id="filter0_d_402_1401" x="0" y="0" width="22.8497" height="21.5" filterUnits="userSpaceOnUse" color-interpolation-filters="sRGB">
<feFlood flood-opacity="0" result="BackgroundImageFix"/>
<feColorMatrix in="SourceAlpha" type="matrix" values="0 0 0 0 0 0 0 0 0 0 0 0 0 0 0 0 0 0 127 0" result="hardAlpha"/>
<feOffset dx="1.5" dy="1.5"/>
<feComposite in2="hardAlpha" operator="out"/>
<feColorMatrix type="matrix" values="0 0 0 0 0 0 0 0 0 0 0 0 0 0 0 0 0 0 1 0"/>
<feBlend mode="normal" in2="BackgroundImageFix" result="effect1_dropShadow_402_1401"/>
<feBlend mode="normal" in="SourceGraphic" in2="effect1_dropShadow_402_1401" result="shape"/>
</filter>
</defs>
</svg>
