<svg width="63" height="62" viewBox="0 0 63 62" fill="none" xmlns="http://www.w3.org/2000/svg">
<path d="M62.6564 25.63C62.7864 30.15 60.2564 34.48 57.6864 36.76L53.6464 40.36L54.3764 46.1C54.7664 49.19 53.8564 54.02 50.9464 57.32C48.8464 59.7 45.8764 61.07 42.7864 61.07C41.6764 61.07 40.5664 60.89 39.4964 60.55C35.9464 59.4 33.2564 57.75 31.2664 56.52L25.1364 59.9C23.1464 60.99 20.6864 61.62 18.3664 61.62C15.8764 61.62 13.5564 60.9 11.6564 59.56C8.3564 57.22 5.39639 51.89 6.11639 47.02L7.2764 39.17C7.1164 39 6.95641 38.85 6.81641 38.7C5.37641 37.26 3.74639 35.61 2.47639 33.74C-1.45361 27.95 -0.123605 22.38 2.4464 19.1C3.2964 18.01 4.3664 17.11 5.5764 16.46C8.8864 14.67 12.1164 14.07 14.7064 13.59C15.3164 13.47 16.0764 13.33 16.6364 13.2L20.7864 6.08C22.4164 3.29 26.0364 0 30.8864 0C31.8464 0 32.8964 0.16 33.8164 0.43C37.7864 1.59 40.4764 4.92 41.5664 7.42L44.0564 13.13C44.4164 13.16 44.7664 13.19 45.0764 13.22C48.8864 13.55 53.6164 13.96 57.7764 16.69C58.0364 16.86 58.2764 17.04 58.5164 17.23C61.0564 19.24 62.5664 22.31 62.6564 25.63Z" fill="white"/>
<path d="M30.3877 9.62354C30.5719 9.54219 30.8462 9.45739 31.1279 9.54053C31.3142 9.59556 31.4958 9.70222 31.6514 9.81299C31.8131 9.92818 31.9761 10.0689 32.127 10.2183C32.3834 10.4724 32.6398 10.7868 32.8008 11.0894L32.8643 11.2173L32.8652 11.2202L36.7646 20.1704C37.1196 20.9877 37.8926 21.5316 39.0566 21.9067C40.2231 22.2826 41.6898 22.4591 43.2988 22.6069C44.887 22.7528 46.6107 22.8701 48.2119 23.1392C49.713 23.3914 51.1612 23.7851 52.3467 24.4956L52.5811 24.6421L52.6006 24.6548L52.6182 24.6694C53.0378 25.0043 53.1734 25.4951 53.1748 25.9585C53.1761 26.4184 53.0486 26.9128 52.8711 27.3716C52.5189 28.2818 51.9076 29.2066 51.3906 29.6714L51.3887 29.6733L43.6045 36.6079L44.9629 47.3071H44.9619C45.0039 47.6325 44.9682 48.0698 44.8887 48.5093C44.8072 48.9598 44.6723 49.457 44.4912 49.9126C44.3135 50.3596 44.0754 50.8067 43.7686 51.1235C43.4552 51.447 42.9926 51.7009 42.4443 51.5259L42.4072 51.5142L42.3779 51.4995C39.1385 50.4361 36.7004 48.6589 34.6914 47.4956C33.6655 46.9016 32.7638 46.4726 31.8965 46.312C31.051 46.1555 30.2203 46.2502 29.3174 46.7476V46.7485L20.5371 51.5776C20.0698 51.8346 19.4353 52.0209 18.8389 52.0894C18.5377 52.1239 18.2293 52.1301 17.9443 52.0942C17.6655 52.0591 17.3715 51.9791 17.1299 51.8101C16.9116 51.6572 16.7015 51.4156 16.5205 51.1655C16.3332 50.9068 16.1513 50.6021 15.9941 50.2905C15.8372 49.9793 15.6999 49.6493 15.6084 49.3394C15.5209 49.0428 15.4583 48.7104 15.502 48.4165L17.2607 36.4995C16.9267 35.7298 16.2422 34.8469 15.3633 33.8872C14.4403 32.8795 13.3878 31.869 12.3926 30.8354C11.4205 29.8259 10.5126 28.8031 9.9834 27.8481C9.45736 26.8987 9.22001 25.8455 9.92285 24.9507L9.9873 24.8696L10.0791 24.8198C12.6379 23.4396 15.6503 23.1277 18.1914 22.5874C20.786 22.0358 22.9382 21.252 24.2139 19.0591L24.2148 19.0581L28.9951 10.8677C29.1537 10.5936 29.4842 10.2412 29.8184 9.97803C29.9904 9.84249 30.1871 9.71213 30.3877 9.62354ZM30.335 14.9751C29.9238 15.8048 29.5305 16.6706 29.124 17.5464C28.5719 18.736 27.9968 19.9393 27.334 21.0464C26.0075 23.262 24.2881 25.1586 21.5859 25.8247L21.5869 25.8257L14.4531 27.5972C14.9534 28.1999 15.507 28.8041 16.0771 29.4243C16.8306 30.2439 17.6124 31.0906 18.2988 31.9692C19.6677 33.7215 20.7329 35.6908 20.4424 37.9927L19.2012 47.8853L27.8154 43.397L27.8164 43.396C29.9501 42.2883 32.3839 42.4369 34.4355 43.4028L34.4541 43.3853L34.7803 43.5581L41.2627 46.9888L40.1504 37.9214C39.8963 35.8552 40.8687 33.9106 42.3057 32.645L48.5703 27.1206C47.252 26.7409 45.9472 26.5434 44.6738 26.4175C43.9027 26.3412 43.1487 26.2906 42.4082 26.2388C41.6711 26.1872 40.9464 26.1344 40.25 26.0532C38.8604 25.8912 37.5382 25.6119 36.3799 24.9722C35.208 24.3248 34.2354 23.3259 33.5137 21.7817L30.335 14.9751Z" fill="#860909" stroke="#860909"/>
</svg>
