<svg width="154" height="179" viewBox="0 0 154 179" fill="none" xmlns="http://www.w3.org/2000/svg">
<g filter="url(#filter0_d_398_1142)">
<path d="M148.2 111.17C146.76 115.74 143.99 119.78 140.3 122.83C139.53 140.46 136 154.47 129.07 167.69C127.37 170.95 124.02 173 120.35 173.05C120.35 173.05 28.8901 174.27 28.8401 174.27C26.7301 174.27 24.6701 173.6 22.9601 172.35C6.31012 160.24 6.38012 138.34 6.95012 121.58C-0.329878 112.68 -2.98988 98.8 4.38012 88.61C9.96012 80.88 14.0401 74.52 17.1001 66.7C19.6701 60.16 26.2901 55.59 33.2001 55.59H33.6101C39.4701 55.74 45.5301 55.83 51.6801 55.86C48.3301 51.62 45.4701 47.29 42.9401 42.66C36.6601 31.2 37.9501 13.81 50.9501 5.69C56.9201 1.97 64.0001 0 71.4301 0C77.9701 0 84.7101 1.52 90.9301 4.39C99.1001 8.16 103.91 15.66 104.13 24.98C104.36 34.52 99.5101 45.92 92.9101 55.24C99.1201 55.04 105.72 54.8 112.83 54.51C113.33 54.49 113.83 54.48 114.32 54.48C130.76 54.48 135.26 66.23 138.88 75.67C140.58 80.11 142.5 85.14 145.73 90.66C149.48 97.06 150.35 104.35 148.2 111.17Z" fill="white"/>
</g>
<path d="M28.84 164.27C15.16 154.32 16.56 133.38 17.09 117.68C11.05 112.68 7.11001 101.89 12.48 94.4701C18.03 86.7901 22.8 79.5701 26.41 70.3501C27.41 67.8001 30.31 65.5101 33.35 65.5901C60.41 66.2801 86.37 65.6001 113.23 64.5101C128.87 63.8701 126.03 76.7901 137.09 95.7101C141.88 103.9 138.71 113.52 130.45 117.32C130.25 133.44 127.94 148.32 120.21 163.06L28.84 164.27ZM121.48 108.12C122.27 91.2501 109.36 96.6201 106.46 71.1001C104.23 70.7001 99.95 70.6101 97.99 70.9101C98.85 81.7301 103.29 89.6201 110.59 96.4801L111.35 110.84L121.48 108.13V108.12ZM27.61 92.1001C33.39 86.3201 36.54 79.8501 37.47 72.1901C29.08 67.9601 30.78 82.4001 20.12 94.2101C15.97 98.8101 15 105.45 18 109.42C18.66 110.29 22.35 111.75 22.47 110.81C23.67 101.44 22.28 97.4301 27.62 92.1001H27.61ZM47.85 109.98C45.07 89.6101 57.97 95.8901 62.27 72.3401L52.82 71.9101C50.07 97.0001 35.76 89.5801 39.01 108.76L47.85 109.98ZM96.55 110.19C101.26 95.1601 82.11 95.0101 82.93 71.5301L75.02 71.2201C73.11 81.8001 77.56 90.9201 86.76 96.8201L88.59 112.23C90.69 112.72 96 111.95 96.56 110.19H96.55ZM72.24 112.22L72.13 89.1001L63.24 100.67C62.01 102.27 62.2 108.69 63.92 109.81C65.64 110.93 69.62 111.92 72.24 112.22ZM30.98 160.68L54.51 160.6L53.78 117.5C30.12 111.9 47.41 116.91 28.26 115.99C26.17 115.89 22.61 116.05 21.6 117.34C19.39 120.16 21.44 153.98 30.97 160.69L30.98 160.68ZM118.11 115.65C114.27 118.04 106.01 115.12 102.27 116.21C95.07 119.16 88.87 119.42 81.13 117.88C73.88 116.44 67.39 120.65 58.42 113.74L59.17 132.35C76.53 132.83 91.06 132.51 107.61 131.79L124.66 131.05L126.04 117.99C126.25 116.02 119.95 114.5 118.12 115.64L118.11 115.65Z" fill="#860909"/>
<path d="M86.7399 13.4701C105.32 22.0501 84.5999 55.5901 71.4899 62.4101C63.0999 54.6201 56.7699 47.0901 51.7099 37.8601C47.4899 30.1601 48.4299 19.0601 56.2499 14.1801C65.4299 8.45012 77.0799 9.01012 86.7399 13.4701ZM68.8499 23.6401C64.3899 25.6201 64.3699 31.0201 66.7999 34.3601C68.33 36.4701 73.7799 37.3201 76.4299 35.4601C78.5499 33.9701 79.7299 29.0601 78.5399 26.4601C77.2899 23.7201 71.7699 22.3401 68.8499 23.6401Z" fill="#860909"/>
<path d="M46.51 131.59C47 130.92 50.65 131.8 50.44 132.59L49.4 136.6C49.12 137.67 45.53 136.78 45.35 135.7C45.17 134.62 45.85 132.48 46.51 131.58V131.59Z" fill="#860909"/>
<defs>
<filter id="filter0_d_398_1142" x="0" y="0" width="153.354" height="178.27" filterUnits="userSpaceOnUse" color-interpolation-filters="sRGB">
<feFlood flood-opacity="0" result="BackgroundImageFix"/>
<feColorMatrix in="SourceAlpha" type="matrix" values="0 0 0 0 0 0 0 0 0 0 0 0 0 0 0 0 0 0 127 0" result="hardAlpha"/>
<feOffset dx="4" dy="4"/>
<feColorMatrix type="matrix" values="0 0 0 0 0 0 0 0 0 0 0 0 0 0 0 0 0 0 1 0"/>
<feBlend mode="normal" in2="BackgroundImageFix" result="effect1_dropShadow_398_1142"/>
<feBlend mode="normal" in="SourceGraphic" in2="effect1_dropShadow_398_1142" result="shape"/>
</filter>
</defs>
</svg>
