<svg width="289" height="368" viewBox="0 0 289 368" fill="none" xmlns="http://www.w3.org/2000/svg">
<g filter="url(#filter0_d_323_1289)">
<path d="M280.42 85.5584C280.42 99.35 275.056 110.536 269.003 119.143C268.773 135.795 259.017 148.77 252.07 157.147C251.074 162.791 249.644 169.993 246.451 177.017C236.618 198.649 225.968 219.438 212.943 242.399C199.968 265.257 189.931 286.302 181.401 308.674C168.963 341.263 146.156 359.958 118.828 359.958C116.657 359.958 114.435 359.831 112.213 359.601C94.6158 357.685 77.5806 353.216 61.5926 346.371L28.697 332.273C8.36714 323.564 -2.4618 304.256 0.475303 281.832C3.99983 254.811 10.487 226.487 20.3199 195.278L44.0721 119.935C46.1664 113.244 48.6949 106.935 51.7341 100.806C42.6674 88.4955 39.3728 72.9162 43.638 57.5157C48.3629 40.404 64.4019 28.0427 82.6375 27.4553C83.5059 27.4298 84.3742 27.4043 85.2171 27.4043C86.9283 27.4043 88.5629 27.4553 90.0442 27.5575C95.4076 16.32 105.853 1.63459 126.924 1.63459C128.329 1.63459 129.759 1.68563 131.189 1.83887C138.034 2.55399 143.576 4.64828 148.045 7.45767C152.796 5.56772 158.006 4.59714 163.446 4.59714C166.051 4.59714 168.759 4.82705 171.466 5.28676C176.906 2.37522 183.802 0 191.923 0C195.244 0 198.589 0.383076 201.884 1.17481C219.634 5.3378 232.634 17.8268 236.618 34.581L238.866 43.9796L250.512 47.6318C264.917 52.1523 280.445 65.9439 280.42 85.5584Z" fill="white"/>
</g>
<path d="M38.7343 308.802C28.7992 304.537 24.3554 296.109 25.7856 285.152C29.4123 257.237 36.1292 230.088 44.6851 202.965L68.4373 127.623C72.1151 116.002 77.2998 105.863 84.783 95.5189C72.013 89.6703 64.5552 77.7177 68.2585 64.3092C70.0208 57.9498 76.6357 53.1994 83.4804 52.9951C97.2465 52.5354 105.726 57.8733 109.965 46.4059C113.235 37.5691 116.989 26.0506 128.558 27.251C143.602 28.8089 139.771 46.5591 150.063 52.8674C149.987 46.4059 147.484 40.3273 151.519 35.5003C157.981 27.7617 168.401 29.7028 176.216 33.4316C181.682 28.2215 187.735 24.1096 196.035 26.0506C202.829 27.6341 209.776 32.1546 211.768 40.5317L215.369 55.6257C216.569 60.7081 220.707 65.101 225.764 66.6589L242.85 72.0223C248.546 73.8101 254.88 79.2245 254.88 85.5584C254.88 96.0553 248.648 104.637 242.212 111.737C247.039 125.503 236.133 136.229 228.165 145.96C226.888 151.809 226.173 159.956 223.21 166.469C213.249 188.382 202.65 208.839 190.723 229.807C177.749 252.64 166.894 275.115 157.547 299.582C150.574 317.869 137.217 336.641 114.997 334.214C100.03 332.58 85.5492 328.851 71.6554 322.9L38.7343 308.802ZM146.462 77.7688C146.334 81.421 144.317 85.6606 143.168 88.9297C149.476 92.3009 155.708 88.5721 158.773 82.9534L165.259 71.0007C168.12 65.7395 174.02 64.3092 180.277 63.0322C162.552 53.2505 150.727 76.4662 139.055 61.3977C130.219 49.9559 132.696 37.5691 126.873 38.0799C116.836 38.9993 120.284 67.8593 94.3605 64.4114C89.9676 63.824 81.1307 63.3132 78.9854 67.3741C75.6141 73.7335 81.2074 80.6548 85.9323 84.0005C102.176 95.4168 92.0109 89.9513 110.221 95.6467L116.044 85.7372C113.414 78.3306 112.979 69.6726 119.952 64.488C124.753 60.938 132.109 61.0913 137.83 64.2071C141.507 66.1992 146.666 71.4094 146.462 77.7688ZM235.929 106.144C239.326 100.397 242.288 94.8804 242.85 88.1634C229.058 79.9651 207.35 82.085 202.676 60.2995L199.688 46.3803C198.641 41.5277 194.477 37.569 188.782 39.9698C184.849 41.6299 180.916 45.9716 178.464 49.8537C187.76 52.9695 193.405 59.5333 191.694 68.4978C198.079 73.4015 199.355 80.2461 200.454 88.3167C207.809 80.8335 219.532 82.1361 226.275 89.8236C230.055 94.1398 230.923 98.3283 228.292 104.126L235.929 106.144ZM198.206 120.139C199.994 123.919 197.9 129.845 196.163 133.318C205.281 134.799 213.096 136.229 221.933 139.626C224.283 136.383 240.577 115.006 227.986 114.878C212.1 114.725 197.542 124.251 191.898 108.033C186.407 92.2498 190.621 79.8119 183.546 76.4407C180.737 75.1126 174.837 75.1637 173.688 77.4368C170.419 83.7706 167.635 89.747 163.6 94.6761C146.411 115.568 127.333 89.5681 120.539 97.5876C117.985 100.627 129.733 109.821 136.297 124.737L142.861 139.677L164.059 134.544C161.607 128.976 159.973 122.566 162.884 117.279C165.209 113.039 170.572 110.153 176.319 109.847C184.874 109.362 193.941 111.124 198.232 120.165L198.206 120.139ZM39.0919 259.791C59.4728 217.548 87.439 164.017 133.002 143.662C128.252 125.835 120.488 107.369 100.669 102.594C94.1561 101.01 88.8183 103.155 85.5492 108.8C80.3646 117.713 76.7379 127.239 73.622 137.353L52.3983 206.49C46.9327 224.265 42.0034 241.224 39.0919 259.766V259.791ZM68.3864 309.185C88.8695 318.303 125.111 335.261 140.614 312.199C144.47 306.478 147.637 300.451 150.6 294.04C168.094 249.805 192 215.275 212.611 171.321C174.556 171.321 139.694 185.062 109.072 207.102C88.3331 222.043 70.8382 238.568 56.1016 259.434C49.4612 268.832 43.5103 277.822 38.1213 288.115C37.3041 289.673 35.9504 291.614 36.1803 292.814C36.359 293.81 38.4789 295.879 39.6027 296.364L68.3864 309.185Z" fill="#860909"/>
<defs>
<filter id="filter0_d_323_1289" x="0" y="0" width="288.42" height="367.958" filterUnits="userSpaceOnUse" color-interpolation-filters="sRGB">
<feFlood flood-opacity="0" result="BackgroundImageFix"/>
<feColorMatrix in="SourceAlpha" type="matrix" values="0 0 0 0 0 0 0 0 0 0 0 0 0 0 0 0 0 0 127 0" result="hardAlpha"/>
<feOffset dx="8" dy="8"/>
<feColorMatrix type="matrix" values="0 0 0 0 0 0 0 0 0 0 0 0 0 0 0 0 0 0 1 0"/>
<feBlend mode="normal" in2="BackgroundImageFix" result="effect1_dropShadow_323_1289"/>
<feBlend mode="normal" in="SourceGraphic" in2="effect1_dropShadow_323_1289" result="shape"/>
</filter>
</defs>
</svg>
