<svg width="346" height="305" viewBox="0 0 346 305" fill="none" xmlns="http://www.w3.org/2000/svg">
<g filter="url(#filter0_d_323_1286)">
<path d="M315.983 160.492C310.747 166.239 304.771 170.785 298.335 174.003C301.272 184.474 302.242 195.533 301.195 206.822C297.466 246.051 275.374 276.775 242.07 288.983C224.728 295.343 207.361 295.368 192.037 295.368C189.049 295.394 186.035 295.394 183.021 295.445L126.655 296.466C125.965 296.466 125.275 296.466 124.586 296.466C97.0793 296.466 60.2251 286.174 40.8658 237.086C32.4887 215.863 32.2077 194.435 39.5377 174.667C17.3945 164.655 3.98587 139.703 0.35919 116.155C-0.892271 108.034 1.15093 99.8607 6.10569 93.1182C11.086 86.3757 18.5948 81.8041 26.7421 80.5782C41.2233 78.4329 68.168 74.4486 81.551 63.2621L92.4311 54.1955C92.7631 47.453 93.989 40.685 96.0322 34.4277C101.651 17.2394 113.042 5.3634 128.162 0.996091C130.486 0.332055 132.861 0 135.236 0C140.676 0 146.014 1.71117 150.484 5.03135C156.868 9.78176 160.699 17.2649 160.776 25.2334C160.776 25.5909 160.802 25.974 160.802 26.3316C164.684 25.974 168.566 25.8208 172.397 25.8208C176.228 25.8208 179.778 25.974 183.481 26.2805C185.729 18.9506 191.705 10.4969 200.772 6.81917C204.066 5.4911 207.565 4.8015 211.141 4.8015C216.377 4.8015 226.414 6.38497 234.612 16.9329C241.023 25.1823 246.718 41.1702 248.072 55.5747L257.19 65.2032C258.824 66.2503 263.754 67.7061 267.048 68.6767C269.372 69.3407 271.671 70.0302 273.867 70.7709C286.101 74.8317 297.875 77.4879 310.977 79.0969C319.609 80.1951 331.23 85.6862 335.623 97.6388C343.362 118.479 324.947 150.583 315.983 160.467V160.492Z" fill="white"/>
</g>
<path d="M275.757 204.421C273.229 231.238 259.539 255.373 233.284 265.001C217.271 270.876 199.852 269.599 182.562 269.905L126.195 270.927C95.1382 271.489 75.6767 255.73 64.6179 227.739C53.5591 199.747 62.0894 174.437 83.9517 154.49C84.6413 150.915 84.3858 145.96 84.0282 140.852C79.5587 148.54 71.9478 152.933 63.2898 153.622C41.2232 155.359 28.6064 131.811 25.5927 112.299C25.1329 109.259 27.6615 106.297 30.4965 105.888C52.9717 102.542 80.2228 97.6899 97.922 82.9023L118.456 65.7651C116.26 52.6376 120.014 29.9583 135.262 25.5654C135.389 37.0584 136.411 46.5336 139.373 56.2387C160.904 49.9815 181.566 49.7771 202.764 55.5236L207.897 33.7893C208.127 32.7677 209.532 30.8521 210.324 30.5457C216.555 28.0172 224.779 56.5452 222.43 65.7395L238.877 83.0811C245.543 90.079 256.679 92.02 265.771 95.0337C279.767 99.682 293.227 102.67 307.784 104.484C308.78 104.611 311.309 105.633 311.641 106.527C313.939 112.733 304.975 134.595 297.058 143.304C285.718 155.768 269.398 158.194 255.785 146.777C255.427 148.284 256.091 151.502 257.317 152.779C270.981 166.801 277.571 184.806 275.732 204.446L275.757 204.421ZM134.291 57.9499C132.503 49.5984 131.686 42.013 131.558 33.8147C125.429 42.9069 122.773 52.9697 123.079 63.2367L134.265 57.9499H134.291ZM216.428 61.4489C216.428 50.9265 215.406 44.8225 212.265 37.8756L207.923 57.5668L216.428 61.4234V61.4489ZM194.514 175.689C212.648 166.801 228.942 162.152 242.76 181.077C255.759 198.904 257.139 220.971 251.673 242.296C263.651 231.212 268.274 216.041 269.04 200.641C269.73 186.517 264.852 173.62 255.07 163.557C251.162 159.547 248.685 155.946 247.638 149.357C238.137 154.031 231.139 144.121 224.115 141.772C217.092 139.422 209.941 143.074 204.526 135.106C190.76 114.776 207.795 107.012 203.709 95.9532C199.878 85.5585 204.271 75.317 214.742 70.6688C192.42 54.451 148.006 56.0089 126.501 71.3328C133.295 81.0124 131.099 94.2676 121.598 100.653C118.226 102.926 113.45 105.071 112.327 109.055C110.641 114.955 109.39 120.778 106.606 125.503C102.953 131.658 97.3346 131.913 90.592 128.491L90.9496 151.707C91.0263 155.819 87.9615 158.322 85.3819 161.182C71.4371 176.787 63.0343 197.448 70.2877 218.519C75.2169 232.872 84.1816 245.974 97.8455 253.253C85.1521 231.774 78.767 209.478 91.0773 186.645C99.5566 170.938 116.796 163.148 134.368 167.899C156.026 173.722 168.719 188.331 194.514 175.689ZM65.6394 144.326C71.5647 143.1 81.7807 137.379 82.266 129.768C83.0322 117.534 84.6157 107.089 89.928 95.3658C72.1777 106.195 52.9972 111.022 31.5691 112.988C35.2979 129.104 46.4844 148.335 65.6394 144.326ZM272.182 145.526C269.474 129.793 273.075 118.147 281.146 107.063C268.044 103.743 256.858 100.423 245.135 95.4169C251.469 109.591 254.968 123.792 255.785 138.911C261.174 142.053 266.077 144.607 272.182 145.526ZM222.506 233.025C224.83 241.505 222.608 249.805 219.671 258.616C223.323 258.208 229.811 257.518 232.799 254.556C236.783 250.597 241.023 245.642 243.296 240.636C251.06 223.576 248.864 203.527 239.082 188.382C232.263 177.834 221.127 174.335 209.838 179.213L192.676 186.62C181.234 191.549 168.974 191.345 157.558 186.569L138.607 178.677C130.588 175.331 121.163 174.386 113.093 177.962C100.272 183.657 92.5331 196.223 92.0223 210.601C91.3838 228.582 98.918 246.306 112.556 258.182C115.851 261.068 123.079 260.813 127.14 261.605C122.262 254.913 117.92 246.868 120.832 237.955C124.739 225.977 137.662 217.625 150.279 219.183C159.729 220.332 165.118 228.633 167.033 237.367C168.77 245.336 166.267 252.895 162.998 260.583H188.41C179.293 248.4 178.884 227.79 191.118 220.588C202.687 213.794 219.441 221.813 222.506 233.051V233.025Z" fill="#860909"/>
<defs>
<filter id="filter0_d_323_1286" x="0" y="0" width="345.478" height="304.467" filterUnits="userSpaceOnUse" color-interpolation-filters="sRGB">
<feFlood flood-opacity="0" result="BackgroundImageFix"/>
<feColorMatrix in="SourceAlpha" type="matrix" values="0 0 0 0 0 0 0 0 0 0 0 0 0 0 0 0 0 0 127 0" result="hardAlpha"/>
<feOffset dx="8" dy="8"/>
<feColorMatrix type="matrix" values="0 0 0 0 0 0 0 0 0 0 0 0 0 0 0 0 0 0 1 0"/>
<feBlend mode="normal" in2="BackgroundImageFix" result="effect1_dropShadow_323_1286"/>
<feBlend mode="normal" in="SourceGraphic" in2="effect1_dropShadow_323_1286" result="shape"/>
</filter>
</defs>
</svg>
