<svg width="305" height="326" viewBox="0 0 305 326" fill="none" xmlns="http://www.w3.org/2000/svg">
<g filter="url(#filter0_d_323_1287)">
<path d="M85.5681 317.077C81.1752 317.077 76.6289 315.877 72.8235 313.731C67.2813 310.615 59.9513 303.566 57.6783 294.04C51.14 266.687 53.6685 236.959 65.187 205.647C64.9061 204.523 64.3953 202.965 63.7568 201.688C59.9769 194.205 54.3581 187.616 44.9594 179.673C22.2543 160.492 8.13069 135.004 4.1209 106.016C2.4608 93.961 2.02667 82.417 1.61803 71.2561C1.51587 68.1403 1.38811 65.0244 1.23487 61.883L0.0599729 36.1133C-0.374207 26.3826 1.66903 21.1214 2.33307 19.4102C6.77704 7.99391 18.8064 0 31.5509 0C35.816 0 39.9024 0.919428 43.6824 2.70722C48.6116 5.05688 52.6725 8.91339 55.2521 13.7149C56.6312 16.2944 57.4485 17.0095 57.4485 17.0095C58.087 17.3926 60.8963 18.1844 62.9395 18.7462C74.0494 21.8621 90.8547 26.5869 110.342 48.8066C127.045 67.8593 137.338 89.1851 141.782 113.984C142.931 120.395 143.569 126.678 143.723 132.807C154.705 129.615 166.3 127.955 178.278 127.955L207.573 128.21C223.791 128.21 239.447 124.864 252.83 118.556C256.507 116.819 260.492 115.951 264.68 115.951C270.963 115.951 280.719 118.173 287.564 124.456C298.24 134.263 299.389 150.864 290.322 163.915C283.324 173.952 277.91 182.533 272.163 192.57C245.091 239.947 199.017 268.219 148.933 268.219C136.75 268.219 124.465 266.534 112.36 263.239C112.002 270.339 112.308 277.643 113.279 284.973C114.76 296.211 108.631 304.562 105.923 307.653C100.56 313.757 93.3322 317.128 85.5681 317.128V317.077Z" fill="white"/>
</g>
<path d="M250.02 179.877C222.182 228.607 170.131 254.326 115.501 237.52C107.124 234.941 101.71 227.662 95.4522 221.532C86.9985 242.373 85.1084 266.457 87.9944 288.268C88.1221 289.213 86.2323 291.971 85.3894 291.486C84.5466 291.001 82.7844 289.111 82.5545 288.115C76.4249 262.473 80.69 236.601 90.0631 212.108C92.4894 205.749 89.4757 195.89 86.5642 190.144C80.409 177.987 71.6489 168.742 61.4584 160.16C43.8103 145.245 32.6237 125.656 29.4312 102.517C27.4901 88.5464 27.4136 74.8571 26.7751 60.708L25.6002 34.9383C25.498 32.7674 25.6002 30.0857 26.1621 28.63C26.8772 26.7656 30.8359 24.8245 32.7769 25.744C46.9771 52.2543 62.7864 33.2272 91.1869 65.6117C104.646 80.9867 113.075 98.2005 116.702 118.454C121.299 143.942 116.446 169.661 95.1202 186.287C95.631 189.863 96.8313 194.154 98.1339 197.423C116.293 169.022 145.613 153.162 179.249 153.443L206.347 153.673C226.115 153.852 246.011 149.97 263.761 141.567C265.038 140.954 269.277 142.231 270.299 143.176C271.499 144.274 270.657 147.416 269.38 149.229C262.331 159.368 256.405 168.614 250.02 179.8V179.877ZM70.2696 99.9883C93.792 127.444 86.3855 147.722 93.8176 178.268C102.476 169.533 106.843 159.547 108.197 147.569C111.593 117.713 100.075 88.8784 79.0554 67.8847C62.4033 51.2327 54.3838 56.5961 34.9479 44.8222C38.2426 85.8392 31.8831 123.357 66.3621 151.425C73.2579 157.019 79.2086 163.123 84.6487 169.789C83.0141 143.304 86.9474 127.316 67.1794 105.249C60.8455 98.1749 56.427 89.2871 58.4957 79.5054C65.2894 85.022 61.6371 89.8745 70.2952 99.9883H70.2696ZM213.192 192.034C203.129 201.535 191.508 205.672 177.998 205.238C170.719 205.008 163.44 204.906 156.263 203.782C140.198 201.254 114.224 203.782 102.144 216.169C107.686 220.434 112.845 226.053 119.383 228.071C164.257 241.888 212.757 219.796 236.944 181.052L250.761 158.909C216.767 169.022 195.288 162.561 165.789 165.064C138.487 167.388 114.377 183.146 102.016 207.715C120.252 194.613 140.3 191.983 161.397 197.218C173.732 200.283 186.936 200.871 198.608 195.099C210.178 189.352 217.917 177.297 225.374 177.834C222.641 184.397 217.891 187.615 213.217 192.034H213.192Z" fill="#860909"/>
<defs>
<filter id="filter0_d_323_1287" x="0" y="0" width="304.419" height="325.128" filterUnits="userSpaceOnUse" color-interpolation-filters="sRGB">
<feFlood flood-opacity="0" result="BackgroundImageFix"/>
<feColorMatrix in="SourceAlpha" type="matrix" values="0 0 0 0 0 0 0 0 0 0 0 0 0 0 0 0 0 0 127 0" result="hardAlpha"/>
<feOffset dx="8" dy="8"/>
<feColorMatrix type="matrix" values="0 0 0 0 0 0 0 0 0 0 0 0 0 0 0 0 0 0 1 0"/>
<feBlend mode="normal" in2="BackgroundImageFix" result="effect1_dropShadow_323_1287"/>
<feBlend mode="normal" in="SourceGraphic" in2="effect1_dropShadow_323_1287" result="shape"/>
</filter>
</defs>
</svg>
