<svg width="38" height="40" viewBox="0 0 38 40" fill="none" xmlns="http://www.w3.org/2000/svg">
<g filter="url(#filter0_d_331_1263)">
<path d="M34.9295 30.0112C34.6188 33.0159 33.0699 35.3415 30.5712 36.562C28.8092 37.4186 26.923 37.5606 25.4095 37.6716C25.1654 37.6938 24.9213 37.7115 24.6772 37.7293C22.6268 37.9112 20.4787 38 18.1087 38C17.2388 38 16.36 37.9911 15.4724 37.9689L8.45999 37.8136C3.73329 37.7071 -0.0613827 33.7881 0.000752304 29.0792L0.142775 18.1035L0.298113 9.89279C0.351371 6.93693 2.1311 4.45153 4.69638 3.35529C5.25116 2.01939 6.25864 0.865456 8.03836 0.337309C8.46887 0.2086 8.91713 0.146469 9.36983 0.146469C10.293 0.146469 11.1984 0.417201 11.9884 0.883214C12.7296 0.328437 13.6483 0 14.6469 0C15.6455 0 16.6219 0.29292 17.4385 0.829944H17.4429C18.1131 0.412752 18.872 0.150906 19.6798 0.0621415C19.8396 0.0443887 20.0349 0.0355133 20.1902 0.0355133C21.0867 0.0355133 21.9921 0.292931 22.8043 0.772259C23.2481 0.501528 23.7141 0.3018 24.1802 0.181968C24.5618 0.0887659 24.9524 0.0399423 25.3474 0.0399423C26.7454 0.0399423 28.2056 0.661302 29.2442 1.69984C29.5238 1.98389 29.7679 2.29012 29.9676 2.61854C31.5298 3.04017 32.8702 3.99439 33.7356 5.35249C34.9162 7.20766 35.0671 9.37352 34.9828 10.8648C34.823 13.7274 34.823 16.3459 34.9828 19.111C35.178 22.5062 35.3334 26.1411 34.9339 30.0112H34.9295Z" fill="white"/>
</g>
<path d="M8.00728 9.2981C8.03391 9.97715 8.95262 10.3411 9.52071 10.35C10.0178 10.3588 10.9143 9.95051 10.9676 9.32029C11.0386 8.48146 11.0075 7.99327 10.9942 7.02574L13.1068 7.09675L13.2577 9.16495C13.2976 9.69309 13.848 10.3899 14.274 10.5009C14.8333 10.6518 15.6588 10.4654 15.9295 9.9372C16.3866 9.04956 16.3911 8.21517 16.2624 7.19882L18.517 7.10562C18.6412 8.17523 18.6856 8.97854 19.0185 9.76411C19.3203 10.4698 20.2612 10.4077 20.7982 10.1902C21.424 9.94165 21.7347 9.2404 21.6859 8.52141L21.5882 7.09675L23.8872 7.16775C23.9227 8.25511 23.8783 9.22708 24.5929 9.915C25.0722 10.381 26.3016 10.2124 26.6922 9.64428C27.1848 8.92529 27.0605 8.0199 26.8608 7.12338C27.8017 6.65293 29.3018 6.6618 29.9898 7.74472C30.4824 8.51697 30.6022 9.67091 30.549 10.6296C30.3848 13.6032 30.3803 16.4037 30.549 19.3728C30.7443 22.8213 30.8685 26.1367 30.5135 29.563C30.1362 33.2201 27.0872 33.0736 24.2867 33.3222C21.3486 33.584 18.5303 33.6106 15.57 33.5441L8.55762 33.3887C6.30744 33.3399 4.40345 31.5114 4.43452 29.1502L4.57654 18.1745L4.72744 9.98602C4.75851 8.30393 6.19649 7.07899 7.92296 7.21658L7.9984 9.31141L8.00728 9.2981ZM27.7307 29.776C28.0414 28.6709 28.1301 27.841 28.1523 26.8157L28.3121 20.4203C28.3654 18.2455 28.503 16.1196 28.1923 13.8695C20.9846 14.766 14.4028 13.4922 7.33267 14.1801C7.16402 16.0753 6.78677 17.7795 6.81784 19.5593C6.86666 22.3376 6.91548 24.894 6.63587 27.6723C6.56486 28.3824 6.83559 29.7139 7.69217 29.7006L15.1439 29.6029L27.7263 29.7716L27.7307 29.776Z" fill="#860909"/>
<path d="M14.6069 4.4426C16.2801 4.3494 15.9206 9.75514 14.8022 9.72851C13.4441 9.69745 12.9692 4.53136 14.6069 4.4426Z" fill="#860909"/>
<path d="M21.0468 8.80541C21.0468 9.12496 20.5585 9.69749 20.2923 9.79069C19.986 9.89721 19.2803 9.35132 19.2404 9.00958C19.0851 7.78019 18.6945 4.63793 20.1591 4.47815C20.4787 4.44264 21.1 4.93086 21.0956 5.29035L21.0468 8.80541Z" fill="#860909"/>
<path d="M10.2397 5.2992C10.4217 6.4487 10.901 9.71079 9.47633 9.73298C9.20559 9.73742 8.65082 9.31134 8.62419 9.0273C8.51323 7.87336 8.18037 4.92639 9.2988 4.59352C9.58284 4.5092 10.1909 4.97521 10.2441 5.2992H10.2397Z" fill="#860909"/>
<path d="M26.235 8.78777C26.235 9.19165 25.5604 9.71536 25.2631 9.65766C24.9657 9.59996 24.513 9.10288 24.513 8.7567L24.5263 5.29933C24.5263 5.00641 25.0101 4.55815 25.2808 4.48714C25.5515 4.41613 26.2483 4.79781 26.2483 5.10849L26.2395 8.78777H26.235Z" fill="#860909"/>
<defs>
<filter id="filter0_d_331_1263" x="0" y="0" width="37.1831" height="40" filterUnits="userSpaceOnUse" color-interpolation-filters="sRGB">
<feFlood flood-opacity="0" result="BackgroundImageFix"/>
<feColorMatrix in="SourceAlpha" type="matrix" values="0 0 0 0 0 0 0 0 0 0 0 0 0 0 0 0 0 0 127 0" result="hardAlpha"/>
<feOffset dx="2" dy="2"/>
<feColorMatrix type="matrix" values="0 0 0 0 0 0 0 0 0 0 0 0 0 0 0 0 0 0 1 0"/>
<feBlend mode="normal" in2="BackgroundImageFix" result="effect1_dropShadow_331_1263"/>
<feBlend mode="normal" in="SourceGraphic" in2="effect1_dropShadow_331_1263" result="shape"/>
</filter>
</defs>
</svg>
