<svg width="303" height="366" viewBox="0 0 303 366" fill="none" xmlns="http://www.w3.org/2000/svg">
<g filter="url(#filter0_d_323_1291)">
<path d="M85.7019 359.933C73.2128 359.933 61.0047 350.304 57.8888 338.02C50.9164 310.641 53.4194 279.763 65.0657 248.503C64.7848 247.379 64.2738 245.923 63.6864 244.723C60.0087 237.316 54.4156 230.778 44.3783 222.171C3.84632 187.36 2.56925 148.974 1.21563 108.314L0.0153258 73.4781C-0.163454 68.1914 1.1388 60.2995 8.34109 52.7653C11.8911 49.0876 19.3745 42.8814 29.897 42.8048C42.616 42.8048 52.8831 51.4372 57.0716 59.4823C57.1483 59.6355 57.2248 59.7888 57.3014 59.8909C58.4507 60.3251 60.6215 60.9636 62.2816 61.4233C72.7019 64.4115 88.1282 68.8554 105.495 86.58C112.851 66.4036 125.749 48.3214 141.558 36.2921L146.87 32.2568C157.699 24.0585 167.072 16.984 177.314 7.12561C182.141 2.5029 188.501 0 195.013 0C197.184 0 199.355 0.280938 201.5 0.842814C210.107 3.11586 216.927 9.6796 219.481 18.2099L219.94 19.7678C226.989 43.2389 229.135 51.8459 227.628 77.0281C226.632 93.5269 224.231 115.338 214.373 137.736C209.367 149.153 202.854 160.237 194.783 171.142L207.962 171.091C227.756 171.015 237.691 167.235 245.71 164.221C251.865 161.897 258.812 159.241 267.291 159.241C268.007 159.241 268.722 159.241 269.463 159.292C279.398 159.828 288.26 165.907 293.138 175.586C297.837 184.908 297.454 195.354 292.065 203.552C285.783 213.13 277.967 225.031 271.633 236.065C244.714 282.956 198.768 310.973 148.76 310.973C136.68 310.973 124.446 309.364 112.315 306.197C111.957 313.221 112.212 320.397 113.081 327.319C114.741 340.293 106.773 349.589 104.295 352.143C99.4425 357.098 92.6999 359.933 85.753 359.933H85.7019Z" fill="white"/>
</g>
<path d="M82.637 331.737C76.1243 306.146 80.4406 279.15 90.0181 254.709C92.3423 248.783 89.2772 238.874 86.5444 233.383C80.3893 220.945 71.2973 211.649 60.9791 202.786C27.5217 174.079 27.9556 142.972 26.5254 102.312L25.504 72.5841C25.4529 71.1794 28.7221 68.3445 30.0246 68.3445C31.3272 68.3445 33.7534 70.0557 34.4175 71.3327C45.6551 92.735 63.431 77.8709 90.0437 107.497C104.397 123.459 113.208 141.669 116.81 162.97C119.568 179.366 118.291 194.894 111.063 210.269C123.041 197.857 131.623 193.336 134.177 173.645C135.76 161.463 119.619 127.929 127.766 100.474C132.695 83.8472 143.192 67.1441 156.984 56.6473C170.776 46.1504 181.886 38.182 194.988 25.5908C201.679 47.9126 203.467 53.1483 202.113 75.5212C201.015 93.5268 198.359 110.664 190.978 127.495C180.787 150.685 164.288 170.07 145.644 187.13L122.531 208.277C116.861 213.462 111.676 219.208 108.509 226.334C125.417 208.737 146.462 196.886 171.133 196.784L208.038 196.657C246.553 196.503 256.948 184.219 268.057 184.832C269.309 184.908 271.454 188.407 270.688 189.557C263.614 200.334 255.977 211.981 249.439 223.371C222.009 271.131 171.695 296.288 116.81 280.989C107.768 278.461 101.843 271.182 95.2792 264.516C86.7744 284.718 85.0888 310.105 87.6939 330.588C87.8727 331.941 86.4934 333.806 85.957 334.342C85.4207 334.878 82.9435 332.988 82.637 331.762V331.737ZM158.235 114.24C173.406 94.1142 161.581 85.9159 178.259 59.5333C181.196 54.9106 183.699 50.9263 186.278 46.1759C180.43 51.054 176.215 54.6296 170.188 58.8948C153.664 70.5665 139.412 87.6526 135.53 108.289C131.648 128.925 139.515 150.046 142.375 171.142C152.412 147.927 142.375 135.284 158.21 114.265L158.235 114.24ZM66.8787 147.901C58.7825 138.732 54.5172 128.082 53.6744 115.9L52.2955 96.0042L34.8259 87.8059C38.2227 128.746 31.6847 165.805 66.0104 194.103C72.8807 199.747 78.9081 205.979 84.4503 212.083C83.1733 185.164 86.4424 170.07 66.8787 147.876V147.901ZM201.832 235.962C208.549 231.416 215.113 226.232 220.655 220.664L235.494 205.774C208.907 209.963 189.905 206.081 166.229 207.894C138.059 210.065 113.336 226.64 101.23 251.746C141.583 219.285 172.282 256.011 201.807 235.962H201.832Z" fill="#860909"/>
<defs>
<filter id="filter0_d_323_1291" x="0" y="0" width="302.404" height="365.933" filterUnits="userSpaceOnUse" color-interpolation-filters="sRGB">
<feFlood flood-opacity="0" result="BackgroundImageFix"/>
<feColorMatrix in="SourceAlpha" type="matrix" values="0 0 0 0 0 0 0 0 0 0 0 0 0 0 0 0 0 0 127 0" result="hardAlpha"/>
<feOffset dx="6" dy="6"/>
<feColorMatrix type="matrix" values="0 0 0 0 0 0 0 0 0 0 0 0 0 0 0 0 0 0 1 0"/>
<feBlend mode="normal" in2="BackgroundImageFix" result="effect1_dropShadow_323_1291"/>
<feBlend mode="normal" in="SourceGraphic" in2="effect1_dropShadow_323_1291" result="shape"/>
</filter>
</defs>
</svg>
