<svg width="316" height="127" viewBox="0 0 316 127" fill="none" xmlns="http://www.w3.org/2000/svg">
<path d="M53.1475 0C53.5429 0 54.7845 0.0376008 56.3779 0.432617C57.4611 0.164668 58.5892 0.0263672 59.7461 0.0263672H59.9775C61.4695 0.0263672 62.7815 0.0901532 64.042 0.141602C65.2125 0.193051 66.3189 0.244141 67.5537 0.244141C68.7884 0.244143 69.7016 0.27001 70.6533 0.308594C71.3349 0.334314 72.0165 0.360342 72.8652 0.360352H73.2383C75.1676 0.424663 76.6605 0.527151 77.9854 0.617188C79.5285 0.720066 80.7503 0.810533 82.4863 0.810547C83.5925 0.810547 83.7091 0.810405 84.3779 0.746094C85.175 0.668965 85.8179 0.630212 86.4736 0.604492C86.8466 0.578773 87.207 0.56591 87.6699 0.527344C89.3678 0.385859 92.031 0.244141 93.7031 0.244141C94.616 0.244152 95.349 0.282715 96.0947 0.321289C96.4549 0.334151 96.8286 0.360352 97.3174 0.360352C101.54 0.360448 105.399 2.09301 108.219 5.19141C110.723 2.81187 114.144 1.41504 117.936 1.41504H118.54C119.993 1.22212 122.231 1.08106 125.858 1.08105C127.826 1.08105 131.428 1.13226 133.653 1.3252C134.193 1.35091 134.656 1.38932 134.978 1.41504C135.428 1.41504 135.917 1.38884 136.432 1.37598C137.473 1.33739 138.567 1.3125 139.66 1.3125C144.23 1.31251 149.455 1.66951 153.956 4.17285C156.071 2.79805 158.502 2.05178 160.947 1.95508C169.951 1.46632 181.27 1.32474 190.376 1.20898C194.338 1.15754 197.965 1.1063 200.937 1.04199H201.798C203.416 1.04199 204.964 1.2717 206.411 1.70996C207.183 1.54884 207.97 1.44529 208.77 1.40234C210.184 1.26087 211.368 1.26074 212.436 1.26074C217.889 1.26074 223.227 1.23471 228.577 1.20898C234.005 1.18326 239.446 1.1582 245.028 1.1582H245.929C246.868 1.1582 247.807 1.26101 248.72 1.4668C248.9 1.50685 249.079 1.55007 249.257 1.5957C249.902 1.51955 250.572 1.4795 251.267 1.47949H253.801L254.482 1.59473H266.315C270.033 1.59473 273.352 2.66309 275.976 4.61816C277.776 3.17759 279.963 2.18684 282.445 1.71094C284.786 1.24792 286.613 1.24805 287.706 1.24805H301.288C310.922 1.24805 315.965 8.06501 315.965 14.792C315.965 15.4223 315.965 16.9913 315.438 18.8945C315.309 19.4733 315.128 20.1171 314.896 20.7988C314.768 21.2875 314.613 21.7506 314.446 22.1621C313.636 24.8116 312.98 26.3295 312.299 27.8857C311.99 28.5802 311.784 29.0431 311.488 29.8662C311.167 30.7537 310.909 31.4357 310.665 32.1045C310.472 32.619 310.267 33.1465 310.022 33.8281L309.945 34.0596L309.636 34.8311C309.096 36.1944 308.62 37.3778 307.797 39.0498C307.231 40.3746 306.832 41.1983 306.472 41.9443C306.073 42.7545 305.7 43.5262 304.902 45.4424L304.812 45.6611L304.71 45.8799C304.144 47.1018 303.861 47.9125 303.424 49.1602C303.051 50.2148 302.665 51.3081 302.138 52.6328L302.086 52.748C302.034 53.1468 302.022 54.0994 302.009 54.7939C302.009 55.6299 301.983 56.5815 301.919 57.6104C301.906 58.3692 301.868 59.0384 301.829 59.6172V59.8486C301.829 60.0157 301.829 60.1827 301.842 60.3369C301.88 61.0571 301.919 61.7905 301.919 62.665C301.919 62.7551 301.931 62.8842 301.944 63C301.983 63.5787 302.021 64.1836 302.034 64.8652C302.124 66.5113 302.138 67.0518 302.202 68.9424L302.253 70.5752V71.9648C302.484 74.3958 302.484 76.5697 302.484 78.499C302.484 80.0424 302.458 81.5476 302.42 83.0781C302.394 84.4671 302.369 85.869 302.369 87.3223C302.369 89.3545 302.369 91.4512 302.472 93.7793V95.1299C302.472 99.8117 300.388 104.057 296.761 106.771L296.478 106.989L296.183 107.182C292.607 109.574 289.25 109.574 288.144 109.574L288.156 109.612C283.667 109.612 279.911 109.575 276.438 109.549C273.519 109.523 270.805 109.497 268.014 109.497H267.216L266.419 109.394C262.861 108.948 259.644 107.24 257.27 104.719C257.258 104.733 257.246 104.749 257.234 104.764C255.717 106.616 253.762 108.005 251.511 108.854L213.001 125.639C211.303 126.372 209.528 126.745 207.702 126.745L207.728 126.732C202.634 126.732 197.927 123.761 195.753 119.156C193.965 115.378 194.101 110.983 196.003 107.352C193.927 108.577 191.496 109.278 188.871 109.278C187.932 109.278 186.697 109.33 185.398 109.368C183.702 109.432 181.775 109.496 180.053 109.496C179.322 109.496 178.501 109.497 177.591 109.433C177.192 109.471 176.729 109.497 176.202 109.497C173.484 109.497 171.414 108.722 170.179 108.158C168.187 109.082 165.724 109.651 162.696 109.651C161.976 109.651 161.152 109.625 160.316 109.587C159.815 109.561 159.313 109.535 158.851 109.535H158.503C156.291 109.638 153.036 109.651 150.143 109.651H141.538C140.29 109.651 135.467 109.381 131.853 105.368C129.833 107.426 126.913 109.034 122.694 109.381C121.871 109.458 120.932 109.484 119.543 109.522C117.909 109.574 115.723 109.639 113.832 109.793C112.43 109.999 111.234 110.024 110.476 110.05H110.167L109.639 110.114H107.646C106.642 110.23 105.857 110.23 105.42 110.23L105.472 110.179C102.84 110.179 100.197 109.582 97.8623 108.409C97.2711 108.455 96.6609 108.48 96.0312 108.48H95.2334C91.0017 108.48 86.9368 108.558 82.6279 108.648C78.2291 108.738 73.6887 108.828 68.8525 108.828C67.322 108.828 65.8815 108.828 64.6211 108.918L64.1963 108.944H60.8262L60.8779 108.931C59.5403 108.931 57.7268 108.841 55.6689 108.159L54.8066 107.876L53.9971 107.478C52.8096 106.882 51.7278 106.146 50.7656 105.298C49.1015 106.534 47.0401 107.267 44.8076 107.267H43.3457C41.471 107.267 39.7173 106.749 38.2178 105.852C36.6222 106.975 34.7473 107.808 32.6455 108.275L31.7959 108.468L30.9346 108.545C26.407 108.918 19.3325 109.149 15.3838 109.149H15.3711C10.2133 109.149 6.77866 106.796 4.79785 104.815C1.11922 101.137 0.347656 97.0462 0.347656 94.2422C0.347654 92.879 0.29656 91.5157 0.245117 90.0625C0.180805 88.4804 0.128906 86.8333 0.128906 85.084C0.128906 83.9522 0.129367 82.6917 0.245117 81.2256C0.245118 79.5278 0.270174 77.6754 0.295898 75.8232C0.321622 73.8425 0.347656 71.8488 0.347656 70.0225C0.347655 68.4018 0.321623 66.807 0.295898 65.1992C0.270174 63.4628 0.232422 61.7133 0.232422 59.9512C0.232428 58.4206 0.296043 56.9799 0.360352 55.5908C0.411789 54.5106 0.463852 53.4305 0.463867 52.376C0.463867 52.0287 0.425306 51.6678 0.386719 51.3076C0.322414 50.536 0.245287 49.61 0.232422 48.5684C0.103798 46.1117 0 43.6805 0 41.0566C1.18562e-06 36.0918 0.244398 31.0625 0.450195 26.625L0.579102 23.9502C0.617689 23.0627 0.669087 22.2005 0.733398 21.3516C0.797703 20.2584 0.874658 19.2038 0.900391 18.2393C0.784647 17.6091 0.682648 16.7729 0.682617 15.8213C0.682617 13.0945 1.5443 7.94934 7.30664 4.10352L7.74316 3.80762L8.19336 3.5498C11.9489 1.46624 15.3449 1.37615 17.1328 1.36328C17.8274 1.33756 18.6638 1.31186 19.5898 1.28613C22.0979 1.20896 26.2522 1.08045 28.0273 0.900391L28.2979 0.810547L29.9951 0.708008C31.1785 0.643696 32.3624 0.540231 33.5586 0.450195C36.3624 0.231552 39.2562 2.13132e-05 42.4072 0C43.6032 0 44.3111 0.0385678 45.0312 0.0771484C45.4171 0.102873 45.8038 0.116211 46.4727 0.116211C47.1028 0.116224 47.8618 0.142087 48.6719 0.180664C49.1606 0.206384 49.6752 0.231445 50.1768 0.231445L51.3086 0H53.1475ZM180.061 109.497H180.048C180.049 109.497 180.051 109.496 180.053 109.496C180.055 109.496 180.058 109.497 180.061 109.497Z" fill="#FFFBF0"/>
<path d="M52.7237 36.6449C50.4599 36.6449 50.0097 36.9793 47.8617 37.2108C46.614 37.3266 42.0865 37.661 40.8388 37.661C37.3274 37.661 32.0153 38.2269 30.0859 38.2269C29.4042 38.2269 29.1855 40.1563 29.1855 42.7545C29.1855 45.8157 29.52 49.7773 29.52 52.1439V52.2597C32.5812 52.1439 34.6135 52.1439 36.6457 52.1439H42.0736C44.6718 52.1439 44.5689 51.9124 47.0514 51.9124H48.7492C50.447 51.9124 52.0291 52.9285 52.0291 54.8579C52.0291 56.4399 52.2606 55.1923 52.2606 61.9836C52.2606 63.4499 52.1449 63.5656 52.1449 65.2635V65.3792C52.1449 66.3953 52.3764 67.5272 52.3764 68.6591C52.3764 69.2251 52.2606 69.791 52.1449 70.2412C51.9133 70.9229 51.1287 70.9229 50.447 71.1415C49.1994 71.4759 47.9517 71.5917 46.7169 71.5917C44.4532 71.5917 42.8711 71.7075 41.3919 71.7075C40.26 71.7075 39.1281 71.5917 37.7647 71.476L31.4236 71.3602C31.1921 74.9874 31.1921 74.0741 31.1921 77.5855C31.1921 80.1837 30.9605 83.4765 30.9605 86.1904C30.9605 87.6567 30.9605 90.152 31.0763 91.6183C31.1921 92.1842 31.1921 92.7502 31.1921 93.4319V94.2293C31.1921 95.1297 30.8576 95.477 29.8287 95.6956C25.7513 96.0301 19.0757 96.2616 15.3456 96.2616C14.7797 96.2616 14.3295 96.1458 13.8793 95.6956C13.4291 95.2455 13.1976 94.8982 13.1976 94.2293C13.1976 91.0652 12.9661 88.1198 12.9661 85.0585C12.9661 83.9267 12.9661 82.9105 13.0819 81.7787C13.0819 78.1515 13.1976 73.7397 13.1976 70.0097C13.1976 66.614 13.0819 63.3341 13.0819 59.9385C13.0819 57.4432 13.3134 54.845 13.3134 52.3497C13.3134 50.9863 13.0819 49.52 13.0819 48.1566C12.9661 45.8929 12.8503 43.5133 12.8503 41.0309C12.8503 35.3715 13.1848 29.4806 13.4163 24.5029C13.5321 22.1233 13.7507 19.7438 13.7507 17.3771C13.7507 16.5797 13.5192 16.1295 13.5192 15.7951C13.5192 15.4607 13.7507 15.2291 14.4196 14.779C15.4357 14.213 16.3489 14.213 17.365 14.213C20.3105 14.0973 26.6517 13.9815 29.5843 13.6471C30.0345 13.6471 30.3817 13.6471 30.7162 13.5313C34.562 13.2998 38.4078 12.8496 42.3695 12.8496C44.183 12.8496 44.5175 12.9654 46.4468 12.9654C47.4629 12.9654 48.9421 13.0811 50.2927 13.0811C51.193 13.0811 51.9905 12.9654 52.5564 12.8496H53.1224C54.1385 12.8496 54.37 14.779 54.37 17.0427C54.37 22.7021 54.1385 30.2909 54.1385 35.0371C54.1385 35.8345 53.4568 36.5034 52.6722 36.6191L52.7237 36.6449Z" fill="#8E0A0A"/>
<path d="M96.6358 63.6943C94.9379 63.8101 93.4716 63.9258 91.7738 63.9258H90.4104C87.6964 63.9258 85.5484 63.8101 82.8216 63.8101C82.8216 63.8101 82.0241 68.2219 82.0241 71.7333C82.0241 72.0677 82.8216 72.0677 83.156 72.1834C84.7381 72.5179 86.3201 72.6336 88.018 72.6336C90.9635 72.6336 94.4749 72.2992 97.1888 72.2992H97.4204C98.4365 72.2992 99.3497 72.2992 99.3497 73.997C99.3497 79.888 99.4655 85.8818 99.4655 91.657V94.1522C99.4655 95.5156 97.5361 95.6185 96.0698 95.6185H95.2724C86.4488 95.6185 78.1783 95.953 68.9045 95.953C67.2067 95.953 65.5088 95.953 63.811 96.0687H60.8655C60.5311 96.0687 60.0681 96.0687 59.7336 95.953C59.0519 95.6186 58.6017 95.0526 58.6017 94.1394V91.4254C58.7175 89.0459 58.7175 86.5635 58.7175 84.184C58.7175 67.7717 58.2673 50.1118 58.2673 32.3489V25.2232C58.2673 22.7279 58.3831 20.1297 58.3831 17.5315V16.0652C58.3831 15.1649 58.4989 14.3674 58.8333 13.4671C59.0648 13.1326 59.2835 12.9011 59.7336 12.9011H59.9652C62.4605 12.9011 64.6085 13.1326 67.554 13.1326C69.5862 13.1326 70.8339 13.2484 72.879 13.2484C76.7248 13.3642 78.6542 13.6986 82.5 13.6986C83.7477 13.6986 84.3136 13.6986 85.5613 13.5828C86.8089 13.4671 87.5935 13.4671 88.8412 13.3513C90.2046 13.2355 92.4684 13.1198 93.7031 13.1198C95.0666 13.1198 95.8511 13.2355 97.3303 13.2355C98.012 13.2355 98.578 13.57 99.0282 14.2517C99.1439 14.4832 99.1439 14.5861 99.1439 14.8176V16.0652C99.2597 16.9656 99.1439 17.4287 99.2597 18.2133C99.3754 19.0107 99.4912 26.3679 99.4912 27.1525C99.4912 28.516 99.1568 29.0819 97.7934 29.3006C95.0794 29.635 90.8863 29.635 87.7221 29.635H83.8763C83.1946 29.635 82.6287 29.635 82.41 30.3167C81.9598 31.6801 81.844 33.5966 81.844 35.2944V41.5197C81.844 42.0857 81.844 42.5359 81.9598 42.8831C82.0756 43.2304 82.41 43.3333 82.7573 43.3333C84.7895 43.3333 86.9504 43.4491 89.2142 43.4491C91.2464 43.4491 93.2915 43.3333 95.208 43.1147C95.5425 43.1147 95.774 42.9989 96.1084 42.9989H96.3399C96.6744 42.9989 97.1374 43.1147 97.356 43.3333C98.0378 43.7835 98.0378 44.581 98.0378 45.2627V47.8609C98.0378 52.1569 97.8062 49.6744 97.8062 57.932V62.6911C97.8062 63.0255 97.8062 63.3728 97.5747 63.5914C97.3432 63.5914 96.893 63.7072 96.6743 63.7072L96.6358 63.6943Z" fill="#8E0A0A"/>
<path d="M105.807 74.8973C106.257 73.7655 107.736 63.5785 107.955 62.3309C108.186 61.3148 108.405 60.4015 108.636 59.3854C109.202 57.5718 109.434 51.3465 110 49.6487C110.231 48.967 110.334 48.401 110.334 47.8351C110.784 44.7739 111.466 41.1595 112.148 37.198C112.379 35.8346 112.482 34.3683 112.829 32.902C113.28 30.0722 113.961 27.011 114.527 23.9627C115.325 20.7985 116.109 18.1875 116.907 14.7918C117.023 14.3417 117.357 14.2259 117.923 14.2259H119.621C120.418 13.9944 123.132 13.8915 125.846 13.8915C128.907 13.8915 131.956 14.0072 132.869 14.123C133.551 14.123 134.117 14.2388 134.567 14.2388C136.033 14.2388 137.847 14.123 139.66 14.123C142.824 14.123 146.117 14.3545 147.918 15.4864C148.149 15.8208 148.15 16.0523 148.15 16.3868C148.947 19.6666 148.715 20.5799 149.732 23.744C150.066 25.1074 150.632 28.6059 150.979 29.8536C151.545 32.799 152.111 35.6288 152.793 38.5742C153.127 40.1563 153.359 41.7383 153.809 43.3333C156.523 54.8836 158.568 66.5369 161.501 77.6242C161.732 78.9876 161.835 79.6564 162.182 81.0198V81.2513C162.633 83.2836 162.98 84.647 163.43 86.795C163.43 86.9107 164.33 91.8884 164.33 92.0042C164.446 92.12 165.012 95.7343 165.012 95.85V96.0815C165.012 96.6475 163.996 96.7632 162.748 96.7632C161.616 96.7632 160.15 96.6475 158.902 96.6475H158.221C156.188 96.7633 152.227 96.7632 150.182 96.7632H141.577C140.895 96.7632 140.445 92.4672 139.879 89.5218C139.313 86.9236 138.863 83.6309 138.747 82.7305C138.516 81.0327 138.297 79.3348 137.95 77.7528C137.834 77.4184 137.718 77.0711 137.718 76.7367C137.268 73.5725 136.921 71.6432 136.252 68.4791C136.136 67.6816 135.802 67.2314 135.004 67.1157C134.67 66.9999 129.576 66.7812 129.113 66.7812C128.547 66.6655 127.866 66.5497 127.3 66.5497C126.618 66.5497 125.936 66.6655 125.152 66.7812C124.354 66.897 124.354 72.6722 124.251 74.9359C124.135 76.6337 124.135 78.5631 124.02 80.5953C124.02 82.6276 123.904 84.6727 123.904 86.5892C123.788 88.0555 123.788 89.4189 123.672 90.5508C123.672 91.9142 123.557 92.9303 123.557 93.8306C123.325 95.9786 123.106 96.4288 121.627 96.5446C120.38 96.6603 115.968 96.6604 112.238 96.9948C111.106 97.2263 109.974 97.1105 108.958 97.2263H106.694C106.244 97.342 105.794 97.3421 105.446 97.3421C103.517 97.3421 102.951 96.8919 102.951 95.6442C102.951 95.0783 103.067 94.3966 103.183 93.4962C104.083 87.5024 105.446 76.0678 105.781 74.9359L105.807 74.8973ZM134.786 55.4367C133.654 46.9476 133.088 42.1885 131.956 33.6994C131.84 33.365 131.956 33.0177 131.621 32.902C131.287 32.6704 130.605 32.336 130.039 32.336H129.924C129.589 32.336 129.242 32.4518 129.242 32.5675C128.676 35.513 126.181 52.7099 126.078 55.6554V55.7711C126.078 56.1055 126.078 56.337 126.193 56.5686C126.309 56.8001 126.528 57.0188 126.875 57.0188H126.991C127.788 56.903 129.486 56.903 130.953 56.903H133.332C134.58 56.903 135.146 56.5686 134.798 55.4367H134.786Z" fill="#8E0A0A"/>
<path d="M172.138 42.1885C170.44 42.1885 168.292 42.3043 166.028 42.3043C164.562 42.3043 162.967 42.1885 161.732 42.0728C161.501 42.0728 161.282 41.957 160.935 41.957C160.253 41.6226 159.803 41.1595 159.803 40.3749V32.9019C160.035 28.1429 160.137 22.5993 160.253 18.0717V17.5058C160.253 16.3739 160.369 14.7918 161.501 14.7918C174.067 14.1101 191.264 14.1101 201.233 13.8915H201.799C202.48 13.8915 203.162 14.0072 203.612 14.7918C203.844 15.1263 203.844 15.5893 203.844 16.1552C203.728 19.2165 203.509 21.2487 203.509 23.6282C203.509 24.1942 203.625 24.7601 203.625 25.3261V30.5353C203.625 32.6833 203.741 33.8152 203.857 35.9632V38.4585C203.857 39.2559 203.857 39.9248 203.972 40.7222V41.5197C203.972 41.9699 203.406 42.0856 202.956 42.2014C202.056 42.3171 201.593 42.4329 201.027 42.4329C200.229 42.4329 199.445 42.2014 197.515 42.2014H194.917C193.785 42.2014 192.422 42.4329 191.071 42.5358C190.737 43.2175 190.505 45.0311 190.505 45.9315C190.505 47.745 190.39 49.2113 190.39 50.459C190.39 63.1412 190.39 78.5245 190.158 93.4705C190.158 93.9207 190.158 94.4866 190.042 95.0526C190.042 95.85 189.592 96.416 188.911 96.416C186.647 96.416 182.917 96.6475 180.087 96.6475C179.187 96.6475 178.389 96.6475 177.823 96.5317H177.489C177.039 96.5317 176.691 96.6475 176.241 96.6475C175.907 96.6475 175.675 96.5317 175.225 96.3131C174.891 96.0815 174.659 94.731 174.659 94.2808V69.3794C174.659 61.3405 174.659 54.099 174.325 46.1758C174.325 45.6099 174.093 43.9121 174.093 43.3461C174.093 43.0117 174.093 42.6644 173.977 42.33C173.411 42.2143 172.73 42.2143 172.164 42.2143L172.138 42.1885Z" fill="#8E0A0A"/>
<path d="M250.006 14.9075C250.006 14.4573 250.341 14.3416 251.254 14.3416H252.72C253.402 14.4573 254.083 14.4573 254.649 14.4573H266.303C267.435 14.4573 268.451 14.6889 268.901 15.8207C271.396 23.2937 274.676 33.3649 275.924 37.6609C276.605 40.0404 276.721 41.6225 276.94 41.6225C277.017 41.6225 277.094 41.5453 277.171 41.391V41.2752C277.171 41.2752 277.287 41.1595 277.506 40.3749C279.77 33.0176 278.753 35.8473 280.901 28.3743C281.236 26.908 282.368 22.5992 282.599 21.2486C282.934 19.4351 283.165 17.6215 283.397 15.8207C283.963 14.8046 283.628 14.5731 284.863 14.3544C285.995 14.1229 286.895 14.1229 287.693 14.1229H301.275C302.292 14.1229 303.089 14.2387 303.089 14.8046C303.089 15.0361 303.089 15.3706 302.973 15.6021C302.858 16.168 302.742 16.6182 302.523 17.0684C302.523 17.2999 302.407 17.6343 302.292 17.8658C301.044 22.059 300.478 22.3934 299.346 25.5575C298.78 27.1396 298.446 27.937 297.88 29.5191C297.198 31.2169 296.864 32.1173 296.066 33.7122C294.934 36.4262 294.703 36.4261 293.005 40.5035C291.642 43.449 291.307 45.031 290.175 47.8607C288.812 51.0249 289.275 54.0861 289.043 57.1473C289.043 58.2792 288.928 59.0766 288.928 59.7455C288.928 60.7616 289.043 61.5591 289.043 62.691C289.043 63.5913 289.159 64.273 289.159 65.2891C289.275 67.4371 289.275 67.6687 289.391 70.8328V72.6464C289.622 74.6786 289.622 76.608 289.622 78.5373C289.622 81.4828 289.506 84.3125 289.506 87.3608C289.506 89.5088 289.506 91.7726 289.622 94.3837V95.1811C289.622 95.7471 289.506 96.1972 289.056 96.5445C288.722 96.776 288.49 96.776 288.156 96.776C279.898 96.776 274.123 96.6603 268.013 96.6603C267.113 96.5445 266.316 95.8628 266.084 94.9625C265.968 94.0621 265.968 93.2646 265.968 92.4672C265.968 88.7371 266.303 85.1099 266.303 81.0326C266.418 77.6369 266.753 74.6915 266.753 70.7299V69.8295C266.753 68.0159 266.869 64.1701 266.869 60.6587C266.869 58.3949 266.869 56.1312 266.534 55.1151C265.853 52.6198 265.402 50.4718 264.155 48.5553C262.122 45.3912 260.759 41.764 258.611 37.1207C257.248 34.1752 256.463 32.4774 255.215 29.5319C254.418 27.7184 254.199 26.7022 253.518 24.8887C252.952 23.3066 252.617 22.3934 252.051 20.6956C251.601 19.5637 251.485 19.1135 250.919 17.6343C250.469 16.2709 250.019 15.3706 250.019 14.9204L250.006 14.9075Z" fill="#8E0A0A"/>
<path d="M248.192 28.1557C248.192 26.5737 248.192 25.6604 248.077 24.0784C247.845 20.6827 247.742 18.419 247.395 15.4735C247.279 14.5731 246.945 14.2259 245.929 14.0072H245.028C233.941 14.0072 223.407 14.123 212.435 14.123C211.419 14.123 210.622 14.123 209.721 14.2387C209.155 14.2387 208.705 14.3545 208.255 14.5731C207.573 14.8047 207.354 15.1391 207.354 15.705C207.354 17.0684 207.47 18.0845 207.47 19.5508V25.326C207.47 33.6994 207.805 34.2653 207.805 42.42C208.036 43.6677 209.052 44.3494 210.068 44.3494H210.403C213.914 44.1178 215.831 43.8992 219.226 43.8992H220.358C221.04 43.8992 221.606 43.8992 222.391 44.1307C223.522 44.3622 225.105 44.1307 225.105 45.0311C225.105 45.3655 224.989 45.9314 224.77 46.4974C224.539 46.9475 224.32 47.5135 224.088 47.8608C222.159 50.5747 220.243 52.8385 217.863 55.218C216.731 56.4657 215.484 57.5975 214.467 58.9481C212.654 60.9803 211.072 63.0254 209.374 65.2892C208.808 66.0866 208.242 66.8712 208.242 67.8874C208.242 68.1189 208.358 68.4533 208.358 68.6848C208.589 77.2897 208.589 84.2997 208.589 91.2067C208.589 91.7727 208.589 92.4544 208.705 93.0203C208.937 94.3837 208.821 95.3998 210.068 96.0815L210.403 96.4159C210.737 96.5317 211.085 96.7504 211.419 96.7504H217.747C219.021 96.7504 219.715 98.2295 218.918 99.2071L207.457 113.24C207.522 113.356 213.168 111.375 229.889 105.111C231.278 104.583 234.661 103.233 236.912 102.448C239.793 101.445 245.916 99.6701 247.344 96.5831C247.459 96.3259 247.536 96.0687 247.536 96.0687C247.536 95.5027 247.652 95.0525 247.652 94.6024C247.652 93.702 247.536 92.5701 247.536 91.4382V87.1422C247.652 82.1645 247.987 77.4055 247.987 72.1962C247.987 69.9325 247.536 69.598 246.971 69.598H236.218C232.938 69.8296 231.356 69.8296 228.41 69.8296H227.613C227.047 69.8296 226.481 69.8296 225.915 69.7138C225.117 69.598 224.667 69.1479 224.667 68.3504V68.1189C224.667 67.6687 224.783 67.2185 225.117 66.8712C232.925 57.4818 241.08 50.1245 247.305 41.7383C247.755 41.4039 247.987 40.8379 248.102 40.272C248.102 39.5903 248.218 39.0244 248.218 38.2398C248.218 37.3394 248.102 36.8764 248.102 35.976C248.102 32.9148 248.218 31.217 248.218 28.1686L248.192 28.1557Z" fill="#8E0A0A"/>
</svg>
